<?xml version="1.0" encoding="UTF-8"?>
<svg xmlns="http://www.w3.org/2000/svg" xmlns:xlink="http://www.w3.org/1999/xlink" viewBox="0 0 1040 500">
  <defs>
    <style>
      .cls-1 {
        fill: #b9474d;
      }

      .cls-2 {
        fill: #ca7e7e;
      }

      .cls-3 {
        fill: #c95556;
      }

      .cls-4 {
        fill: #df9492;
      }

      .cls-5 {
        fill: #e9a49f;
      }

      .cls-6 {
        fill: #d26f74;
      }

      .cls-7 {
        clip-path: url(#clippath);
      }

      .cls-8 {
        fill: #8bb6d3;
      }

      .cls-9 {
        fill: none;
      }

      .cls-10 {
        fill: #eebdbb;
      }

      .cls-11 {
        fill: #faf1f2;
      }

      .cls-12 {
        fill: #74a5c3;
      }

      .cls-13 {
        fill: #f2d2d7;
      }
    </style>
    <clipPath id="clippath">
      <rect class="cls-9" width="1040" height="500.01"/>
    </clipPath>
  </defs>
  <g id="BACKGROUND">
    <rect class="cls-11" width="1040" height="500.01"/>
  </g>
  <g id="OBJECTS">
    <g class="cls-7">
      <g>
        <path class="cls-13" d="m232.85,53.73c1.46,1.2,3.52.59,5.24.77,3.14-.18,6.04.86,9.17,1.1-.35.93-.23,1.69.15,2.62,2.29-.14,4.57.33,6.75-.27,2.58-.98,4.69-.42,7.51-.27-2.6,1.44-5.36,1.54-7.96,2.96-1.19.93-2.81.03-3.81,1.23-1.83,2.27-3.54,1.06-5.11,4.29.52-.04.94-.06,1.4-.1.55.51,1.13,1.05,1.7,1.58,1.83-.47,2.27.98.61.72-1.97-1.44-3.64.69-5.74.32.38,2.25,2.71.57,3.5,2.29.65,1.75-1.19.97-1.82,1.57-.01.86,1.06.81,1.13,1.68-.78.5-1.87.36-2.22,1.46-.81,1.44-3.73,2.03-5.03,1.1-1.44-1.09-3.02.02-4.49.41-.14,1.12,1.24,2.85,2.23,2.35-.02-.34-.04-.73-.06-1.1,1.44-.33,1.83-.33,3.26-.02-.27,1.87-1.52,1.13-2.82,1.34.38.81.9,1.12,1.49,1.66.87.74,1.13,1.68.82,2.86-.37.39-.81-.07-1.21.06-1.9,1.16-3.01-1.35-4.42-2.28-1.02.16-1.44.71-1.25,1.73-.68.6-1.55.23-2.09.94-.22.33.19.73.49.64,1.83-.84,3.46.3,5.57.44-3.11,1.96-6.4,3.34-9.95,3.98-2.77.13-5.72,1.95-8.36.58-.77,1.21-2.03,1.29-2.99,2.18-2.6,2.24-5.65,4.48-9.11,4.25-1.86-.16-3.53.7-5.27,1.17-.87.44-1.39,1.58-2.54,1.35-.98-.2-.78.65-.67,1.53-.39.24-.8.5-1.27.79.07.4.14.8.22,1.28-1.26,1.47-2.89,2.4-4.6,3.25-.27,1.2-.3,2.33-1.31,3.13-1.2,1.48-2.14,2.91-3.47,4.37-.71-.05-1.58-.11-2.46-.17-.29-1.28-1.52-1.29-2.31-2.38-1.29.02-3.12.95-4.06-.47-1.94-3.24-3.83-7.44-3.06-11.36.5-1.99-2.57-2.88.34-4.28-.07-.65-.14-1.34-.21-2.1,1.28-1.26,2.96-2.19,4.38-3.25,1.37.79.51,1.11.52,2.35,1.78-.83,1.32-3.28,3.35-3.67.29-.8.55-1.54.86-2.38-.97-.34-2.02-.2-3-.6-.46-.15-.88-.52-1.5-.22.24.72.77.98,1.31,1.53-1.19,1.23-3.31,1.74-4.37.15.87-3.51,4.86-2.94,7.31-1.89.34-.31.66-.6.99-.89-.13-.99-1.1-1.38-.62-2.55-3.82-1.06-4.7,1.58-6.31.11.15-.76.71-1.15,1.25-1.54,2.99-1.69.93-2.23,1.23-6.25-.42-.46-1.14-1-1.35-1.63-.2-.98-.89-1.31-1.63-1.56-5.01-1.65-10.08-.17-15.23-.51v-1.1c-.51-.54-1.26-.18-1.74-.88,1.07-.53,2.25.03,3.16-.63-.41-1.68-2.54-.88-3.48-2.21,2.61-2.46,13.79-.95,15.72-3.57-.08-.56-.58-.45-.87-.67-.23-.18-.4-.46-.65-.78,2.13-.89,4.48-.84,6.72-1.27,1.39-.37,3.13.54,4.26-.6,3.12-2.03,8.2-1.37,11.84-1.57.65-.06,1.27.61,1.89.21,1.33-.64,2.66.28,4.04.46.33-.42.64-.82.98-1.25,1.7-.55,3.26.45,4.96.51,1.06.18,1.28-1.4,2.37-1.26,2.84-.16,5.74-1.43,8.39.16.41-.25.84-.51,1.36-.82,1.73.85,3.66-.62,5.52-.35,2.23.16,4.31-.67,6.45-.76Zm-57.77,47.81c1.47-.03,1.74-.13,2.43-.81-.94-.52-1.96-.23-2.43.81Zm69.1-44.29c-.01-.11-.02-.21-.03-.32-2.34-.66-2.26,1.29.03.32Zm-16.37,26.5c-.9-.32-1.16.19-1.48.81.74.23,1.1-.08,1.48-.81Zm-15.92-26.69q-1.09-.26-1.72.08.83.37,1.72-.08Zm-43.57,9.97c-.4-.55-.77-.59-1.14.09.48-.04.81-.06,1.14-.09Zm77.52-8.62c.12.75.86.67,1.01.12-.19-.34-.68-.09-1.01-.12Zm-4.85,16.49c.1.21.22.06.36,0-.14-.06-.26-.2-.36,0Zm-75.85-8.24v.08s.09-.03.09-.03l-.09-.05Z"/>
        <path class="cls-13" d="m640.8,94.73c-1.71-.41-3.47-.68-5.06.55l-.18,2.95c3.55.22,6.75,3.17,10.46,2.61-.22-.82-.89-1.38-.93-2.29,4.37-1.94-2.79-3.25-4.29-3.82Zm-45.22,21.21s-.03.02-.04.03h0s0,.02,0,.03l.04-.05Zm-5.52,21.02c-.81-1.3-2.41-2.96-3.38-3.67-.35.37-1.02.28-1.23.97.51,1.2,1.68,2.08,1.53,3.7l.48.44c2.07.71,3.39,2.6,4.5,4.55,2.26,1.7,2.5,6.11,5.32,6.7-.08-.97-.16-1.95-.25-2.91.54-.27,1.01-.5,1.55-.77-2.57-3.31-6.11-5.54-8.53-9Zm-55.23,148.43c-1.36-1.17-2.45-3.11-4.21-3.53-.46-.03-.8-.31-1.13-.65-.27-.3-.48-.59-.64-.88l-2.32.37c.94,1.3,1.89,2.6,2.31,4.13.47,5.72,3.11,10.99,7.89,13.74,2.98,1.55,2.74-1.19,1.19-2.98-1.97-3.53.82-6.55-3.08-10.2Zm-242.19-157.9h0s0,0,0,0h0Zm0,.01h0s0-.01,0-.01c0,0,0,.02,0,.03,0,0,0,0,0-.01Zm1.06-5.85c-1.86-.54-1.95,2.37-3.59,2.45-.41.05-.89-.03-1.21.53-.09,1.26.63,2.78,1.16,4.25l2.2-.18c-.18-.53-.19-1,.37-1.21.38-1.1.92-2.08,1.79-2.9-.36-.41-.65-.74-.95-1.07.08-.66.15-1.28.22-1.87Z"/>
        <path class="cls-13" d="m632.06,103c-1.44-1.3-3.43-.51-4.62-2.25.73-.32,1.26-.28,1.97-.38,1.34-.23,1.02-2.22-.08-2.58-.48-.29-1.81-.41-1.45-1.27,1.21-1.48,3.84,2.63,6.89,1.71.26-.01.53-.01.79,0l.18-2.95c-4.33-2.92-9.23-3.97-14.13-5.18-8.44-2.67-17-3.94-25.65-4.27-1.22,1.03,1.54,1.57,2.13,2.05.5.26.51.37.34,1.3-1.79-.03-3.6-.94-5.33-1.48-.81-.3-1.24-1.37-2.1-1.71-.4.4-.79.79-1.17,1.17-5.19-.58-11.21,1.45-15.79-1.82-4.2-3.18-9.78-1.55-14.58-1.77-1.74.29-3.26-.84-4.96-.93-3.18.16-5.46-2.63-8.54-2.84-2.8-.74-2.73,2.11-4.21,1.13.15-.36.26-.64.41-1.01-2.04-.29-11.24-2.54-11.59.34.3.55,1.32.76,1.16,1.5-2.53,1.14-5.1-.06-7.72.27-1.9.33-3.77-.43-5.57-.45.02.74.68,2.11-.3,2.19-2.52-.41-4.87-1.78-7.23-2.64-.09-.47-.15-.81-.21-1.16-.77-.36-1.57-.6-2.04-1.43-1.49-.93-3.28-1.8-5.07-1.73-1.7.54-5.47-1.18-5.91-.29-.03.5-.06,1.01-.09,1.58-2.87-.06-5.99.74-8.62-.72-.84-.52-1.73-.64-2.69-.62-2.5-.07-5.07.26-7.53-.19-4.01-2.03-7.74,2.09-11.71.64,1.8-1.31,3.39-2.41,5.23-3.51.9-.31,2.57-1.2,1.37-2.3-.51-.4-1.17-.11-1.59-.71-1.26-1.01-2.95-1.23-4.41-1.8-1.9-.31-3.96-.44-5.85-.01-1.9.62-1.9.64-3.21-.86-3.35.41-6.6-3.48-9.59-.33.08.49.15.94.21,1.36-1.98,1.22-5.12,2.18-7.29,1.35-1.06-.48-2.14-.44-3.2.04-2.97,1.77-7.45.13-9.53,3.43.34.82,1.23.98,1.42,1.94-2.87.08-5.55.66-8.38.72-.64,0-1.26.14-1.85.57,1.92,4.37,4.52,1.19,5.52,3.86-2.79,1.15-5.16-2.14-8.02-1.08-.12.37-.24.74-.39,1.19-.64-.16-1.14-.49-1.75-.57-1.46.43-.27,1.34.6,1.5.18.08.42.14.29.47h-2.61c-.76-.9-1.32-1.83-1.66-2.95-1.9,1.38-3.75,2.53-.58,3.8,1.47.69,1,1.26,1.04,2.82,1.73,3.13,4.49.96,6.86,2.25q-2.31.49-3.32,1.43c.49.69.98,1.37,1.44,2.01-.77,4.37-5.79,5.43-8.71,2.98,1.13-.48,2,.47,3.04.31.88-.88,1.52-2.13,2.26-3.13-.16-3.14-2.1-2.31-3.12-4.47-.34-.87-.74-1.72-1.14-2.55-.96-2-.53-1.67-2.35-2.46-.14-.06-.25-.21-.4-.34.12-.74.23-1.48.34-2.17-1.07-1.69-6.85-2.74-7.3-.78.03,3.28-.85,1.95-1.77,3.79,3.99,4.78-.64,2.26,6.47,5.78.41.21.54.63.38,1.04-.38,1.04-1.29.54-1.95.2-2.01-1.17-4.32-1.23-6.43-2.07-2.53-.94-5.56-1.9-8.2-1.27-.35,1.08.47,1.45.82,2.33-.79.51-1.46,1.01-2.25,1.18-.55-.5-1.04-.96-1.54-1.42-1.47.44-2.77,1.33-4.34.76-.27-.1-.64.02-.94.13-1.29.57-2.44,1.54-3.92.92-.04-.39-.09-.78-.14-1.24-.29-.2-.61-.41-.95-.64-.99.63-1.72,1.51-2.95,1.42-1.58-.06-2.86,1.1-4.29,1.67-1.38.43-2.08,1.57-2.91,2.68-1.56.31-3.84-.06-4.57-1.76.28-1.1,1.45-.74,1.97-1.42-1.6-1.46-2.6-1.63-4.18-.68v2.74c.5.43,1.05.91,1.63,1.41-.29.71-.38,1.36-.99,1.85-.97-.4-1.98-.81-2.92-1.2-1.55,1.17-3.26,1.54-4.45,3.14.51.54.97,1.01,1.45,1.52-2.14,1.4-4.53-.19-6.6-.86-1.66,2.59,2.51,1.11,1.75,3.37-1.75.53-3.26-.4-4.82-1.17-1.85-.7-1.96-2.82-2.58-4.6-.96-.54-2.54-.72-2.95-1.99,4.88-.24,11.5,4.56,15.34-.53-.92-3.39-6.76-3.72-9.47-5.35-2.52-1.53-5.75-.2-8.03-1.94-1.55-1.17-4.04.4-5.89-.91,2.07-1.68-.65-2.21-1.93-2.41-.32.25-.58.45-.89.69-1.27-1.36-1.84-.86-2.97.35-1.16-.46-2.28-.9-3.44-1.36-1.31.73-2.5,1.86-3.91,2.23-1.01.06-1.93.41-2.85.78-1.58.52-2.11.7-3.98-.31-.57.75-1.25,1.42-2.23,1.64-.26-.15-.5-.48-.83-.27.01.36.21.54.48.7-.62,1.17-.86,1.34-2.44,1.71h0c-.23.4-.37.97-.69,1.16-1.82,1.39-3.59,2.97-5.09,4.7-1.71,3.12-2.62,4.66-5.67,6.31-1.16,1.78-1.52,1.97-3.46,2.02-.17.4-.36.83-.55,1.26-2.43.52-4.26,1.92-6.45,3.23-.02,2.06-.23,4.06.96,5.78-.21.41-.45.86-.69,1.34.34.32.62.58.9.84-.11.59-.22,1.16-.34,1.77,3.5,3.35,6.96-.43,9.99-2.61,2.23,2,2.56,5.32,4.31,7.66.57.79.54,1.76.72,2.67.12.62.34,1.21.92,1.7.61-.03,1.26.17,1.91-.13.29-.57.59-1.13.93-1.8.9-.18,2.19.03,2.94-.61,1.78-1.82,1.2-4.29,1.47-6.69,1.54-1.1,3.56-1.77,3.9-3.94-.71-1.37-1.93-1.96-3.1-2.67-1.27-4.43,1.85-6.92,5.24-8.39,1.08-.64,1.92-1.41,2.1-2.93.46-3.66,6.15-4.06,8-1.48-1.11,1.85-4.48,3.9-6.26,5.89-.59.67-1.01,1.33-1.1,1.97.21,1.75.9,3.25.77,5.15,6.29,4.88,11.48-2.7,16.77,1.76-1.4.77-2.65,1.46-3.99,2.2-2.39-1.33-11.88-.47-6.3,3.41.32,1.1.55,2.17-.1,3.16-1.55.74-2.54-.6-3.65-1.42-1.45,0-2.04.93-2.48,2.24-.8,1.36.11,2.87.22,4.3.16,1.08-.14,1.51-1.17,1.68-1.54.01-2.6,2.75-4.15,1.09-2.34-2.42-4.67.86-7.04,1.18-1.2-.09-1.68,1.35-2.89,1.23-2.56-3.09-3.6-1.44-6.69-.69-.6-.65-1.15-1.33-2.02-1.48-.15-.03-.34-.16-.39-.3-.1-.43-.51-1.08-.72-1.66l-2.2.18c.65,1.82,1.02,3.54-.76,4.55-1.32-.72-2.73.17-4.15.31-3.23.15-4.63,3.08-5.93,5.91-1.47.59-3.11,1.25-4.72,1.89-.52,1.43-.93,2.73-2.44,3.16-1.11.42-1.61,1.86-2.94,1.62-.99.3-2.13-1.04-2.65-.31.71,2.84-.83,2.96-2.98,2.36-1.28-.61-2.66.1-3.94.57.19,2.2,2.37,2.11,3.83,2.84,1.77.98,2.4,3.64,3.56,5.34.34,1.38-.59,6.95-1.68,7.79-3.19-.15-6.59.41-9.75-.49-1.39-.51-2.81.23-4.21-.19-.56-.12-1.08-.05-1.58.29-3.31,1.55-1.4,2.11-1.54,4.98.45,3.58-1.08,6.61-2.33,9.8.58.58,1.09,1.09,1.59,1.59-1.54,4.69.79,4.3,4.19,3.62,1.28,1.17,1.44,2.84,2.76,3.97-1.51,4.16-3.4,7.59-7.53,9.03-1.71,1.06-3.71,5.92-3.39,8.07q0,2.57-1.59,4.39c-1.76,1.96-3.52,3.98-6.17,4.42-2.04.36-1.75,3.41-3.41,4.47-1.43,1.26-2.21,2.88-2.6,4.78-.15.71-.42,1.35-.94,1.84-2.33,2.09-2.61,5.54-4.46,8-1.68,2.07.38,3.75,1.35,5.5-.44,1.46-.72,2.82-.22,4.34,1.01,2.86-.33,5.53-.98,8.27-.13,1.87-1.03,3.33-2,4.81.45,1.58,2.05,3.05,1.49,4.72-.91,2.79.03,4.62,2.83,4.8.73,2.88,3.01,4.78,4.69,7.05,1.63,1.53.65,3.97,2.03,5.62,2.22,3.02,5.69,4.61,8.06,7.51,1.52,1.57,3.38,2.94,5.34,3.71,4.38-2.14,9.04-4.23,13.66-1.72.61.33,1.13.24,1.71-.06,4.09-1.98,8.02-4.57,12.6-4.86,2.56-.57,5.55.77,6.21,3.72.17,4.57,5.36,2.15,7.91,1.82,2.94,2.1,4.96,5.6,3.19,9.35-.38.83-.87,1.68-.3,2.67-.03,2.3-.74,4.45-1.8,6.47,1.22,1.13,1.11,2.92,2.15,4.13,2.97,3.62,5.74,7.25,7.47,11.75-1.28,2.65,3.37,6.38,1.6,9.39-.37.7-.28,1.33,0,2.03,1.23,3.05,2.87,6.76.27,9.56-1.88,2.08-2.5,4.77-2.98,7.55-1.14,3.96-.93,3.05-.95,8.04.02,1.18-.2,2.41.67,3.34,2.6,3.65,3.33,8.46,5.84,12.26.28.53.42,1.04.31,1.68-.42,3.7.78,7.41,1.23,11.06.77,6.14,3.34,5.89,4.83,10.25.7,2.76,1.89,5.29,3.08,7.83.72,1.33-.14,2.41-.75,3.57.82,2.31,2.12,4.47,4.3,5.31,4.43-1.58,8.56-2.53,13.17-2.12,1.12.25,1.71-.98,2.71-.99.64.18,1.17-.16,1.72-.42,2.46-1.14,4.08-3.54,6.02-5.43,2.88-2.54,4.51-6.28,6.95-9.18,2.39-2.06,3.52-6.98,2.83-10.05,4.4-6.09,10.37.09,6.15-16.97-.94-3.13,3.55-4.91,4.94-7.26,1.45-1.66,3.05-3.03,5.02-3.92,3.21-1.43,6.53-5.18,5.8-9.22-.15-4-.22-8.18-.43-12.16-4.17-3.08-1.16-9.26-3.57-13.2-.21-.3-.34-.8-.27-1.15.26-3.27,2.45-5.75,3.34-8.82.85-2.73,3.57-3.88,4.86-6.36,2.42-3.4,4.5-7.29,7.93-9.63,1.68-1.15,3.16-2.55,4.47-4.16,4.43-4.96,6.35-11.53,9.23-17.51.96-1.34,3.21-10.75.88-10.85-1.98,2.21-5.15,2.22-7.78,2.73-1.34-.59-2.11,1.37-3.5.99-1.87-.55-3.26,1.62-4.99,1.18-1.89-.54-2.21-3.13-4.15-3.53-.12-.03-.2-.25-.29-.37.39-.84,1.35-1.06,1.71-2.01-.36-.44-.72-.88-1.09-1.33-2.53-3.11-5.05-6.21-8.37-8.32-2.18-.53-2.16-4.96-2.92-6.92-2.27-4.71-4.98-3.05-4.9-10.42.27-5.84-4.21-5.3-4.69-9.6-.06-2.87-6.55-12.19-5.23-13.88.46.08.96.17,1.51.27.59-1.41.48-3.29,1.46-4.2.28,1.13-.23,2.24-.04,3.41,2.46.78,3.65,5.27,5.38,7.34,1.04,1.45,1.62,2.99,2.03,4.75,2.78,1.23,4.56,4.85,4.44,8.1.05,4.95,4.19,4.86,5.45,8.59.85,4.03,5.4,6.26,4.81,10.75.26,3.17,1.29,6.34,2.05,9.45.02.04.04.07.07.1,1.1,1.51,3.74.19,4.94-.74,1.77-1.37,4.21-.83,5.91-2.45.93-.87,2.32-.26,3.1-1.38,1.74-1.97,4.45-2.17,6.65-3.29,4.09-2.44-1.07-3.63,8.72-5.83,2.12-4.36,2.68-.85,4.5-5.37,2.52-.67,2.09-.9,1.86-3.24.29-.91.42-2.02,1.54-2.32,1.21-1.3,4.11-4.81,2.59-6.61-1.64-2.03-3.12-3.7-5.71-4.08-2.84-.86-2.88-4.15-3.84-6.63-1.88,1.61-2.82,3.92-4.35,5.61-1.89.25-3.81-.37-5.51.76-.72-.4-1.41-.76-2.05-1.54.68-1.6.63-3.24-.36-4.85-1.21.5-.79,1.84-1.28,2.81-.82-.86-1.61-1.7-1.75-2.92-.19-1.65-.95-2.84-2.11-3.85-2.14-1.85-3.11-4.7-4.45-7.22.78-1.84,2.48-3.23,4.48-2.47,2.42.98,3.1,4.31,4.67,6.35.96,1.64,3.14,1.55,4.23,3.19,1.25,1.26,3.1,1.42,4.65,2.07,1.21-.12,2.68-.51,3.37-1.71h2.04c.22.94.49,1.7.8,2.32,1.51,2.98,4.08,2.64,7.69,3.31,1.95.1,3.89,1.18,5.81.53,1.33-.46,2.68-.57,4.06-.53,2.16.21,4.27-.2,6.39-.43.98,1.41,2.28,2.55,2.95,4.23.17.44.51.63.88.71.91.22,1.53.86,2.14,1.56,1.45,1.78,2.4,2.44,4.61,1.67-.26,1.83-1.76,1.67-2.85,2.41,1.63,1.63,2.87,3.61,4.88,4.82,4.32-1.98,2.37-1.25,3.56-4.83,1.39,1.63,1.75,4.15,1.73,6.37.19,3.15.93,6.33,1.88,9.33.31,2.57,1.26,4.87,2.55,7.04,1.9,2.98,2.14,6.71,3.85,9.77,1.55,2.67,2.9,5.42,3.53,8.55.22,2.07,3.09,5.44,4.42,2.47.15-1.41,1.41-1.78,2-2.88.41-1.48,1.04-2.51,2.32-3.31-.74-2.98-.63-5.08.72-7.82-.86-2.04-.62-4.19-1.19-6.29-.24-1.12.31-2.46,1.29-2.88.57-.25,1.08-.51,1.45-1.08.56-.59,1.48-.78,2.19-1.14.23-.78.44-1.5.66-2.23,2.28-1.4,3.89-3.47,5.29-5.77.7-.94,1.06-2.46,2.36-2.47,3.59-1.03,1.44-4.51,3.17-5.48.74-.41,1.51-1.09,2.39-.97,2,.37,3.78-.39,5.58-1.11,1.14-.66.52-1.61,2.34-1.9,2.1,2.49,2.13,6.21,4.99,8.02,3.21,1.91,1.45,2.14,3.12,4.24,2.23,2.36,1.95,5.64,1.94,8.77,1.03.24,2.13,1.46,3.08.7,1.28-1.13,2.53-2.21,3.45-3.72,2.79,3.07,2.14,7.71,4.39,11.11,2.58,5.1,1.29,11.42.92,16.93.66.42,1.45.59,1.91,1.33.45.83,1.01,1.6,1.57,2.38l2.32-.37c-1.35-2.31.26-4.07-3.27-6.59-1.51-2.58.28-5.51.81-8.17.41-1.26.6-2.5.24-3.82-.02-.58.4-1.08,1.01-1.21,1.37-.33,1.38,1.51,1.68,2.47,3.5.84,2.53.23,5.25,3.16.7.76.45,2.17,1.54,2.55,1.44,2.23,2.88.61,4.23,3.19-.27,1.36-.7,2.72.61,3.84,1.8-1.49,3.45-3.08,4.12-5.45,2.04-.15,3.45-1.36,4.87-2.72.32-.26.46-.8.61-1.24.8-3.94-.14-8.72-2.27-12-2.61-3.99-9.86-8.49-8.91-13.81,1.76-2.7,3.25-5.67,6.46-6.39.84.65,1.68.86,2.73.62.29,1.47.33,2.95,1.47,4.01.22-.11.45-.22.73-.36-.18-.7-.34-1.31-.47-1.82,1.16-1.88,3.48-2.33,5.38-2.93,1.15-.2,2.02-.87,2.27-2.21.02-.08.16-.13.27-.21.77.22.73,1.5,1.74,1.53.31-.55.64-1.14,1.02-1.8,1.41-.25,3.34.03,4.19-1.47.92-1.71,2.89-2.08,3.22-4.24.51-.39,1.19-.38,1.51-1.05,1.09-1.87,1.68-3.51,1.41-5.8,1.87-1.37,1.16-4.38,2.88-6-.72-3.91,1.41-4.06-3.12-5.58.25-1.02,1.19-1.45,1.54-2.45-.6-.63-.48-1.91-1.73-2.07.29-.23.49-.39.75-.6-2.13-2-3.93-4.06-5.36-6.7-.92-1.62-3.03-1.38-3.75-3.37.43-3.45,2.5-5.29,5.3-6.58-.11-.67-.44-.93-.94-.9-1.52.13-2.71-.74-4.07-1.29-2.53,2.56-2.99,2.93-4.69-.66-1.54-.4-3.09-.47-4.06-1.92-.6-.89-.26-1.79.72-1.93.64-.09,1.33.04,1.92-.42.7-2.73,2.03-2.14,2.89-4.76,1.37-.08,2.83-.39,3.47,1.28-.2.76-.4,1.54-.6,2.31.36.71.63,1.41,1.17,2.02,1.68-1.6,3.56-3.53,5.95-2.41,2.41,1.03,2.59,1.21,2.93,4.05.13,2.55,2.6,2.07,4.34,2.43.56.71,1.15,1.47,1.74,2.22-.26.43-.45.75-.65,1.07,2.74,2.83.89,4.78,3.24,7.29,1.54-.63,2.79-1.97,4.59-2.03.41-.03.66-.4.72-.86.23-1.98-1.17-3.78-1.74-5.62-.82-1.13-2.04-2.01-2.89-3.14-1.05-2.13-5.53-2.61-4.82-5.33,1.01-1.28,2.48-2.15,2.99-3.93-.33-.8-.66-1.6-1-2.44.81-1.51,1.57-3.01,2.51-4.31,2.94-.15,3.62,2.52,6.15-.02,2.1-1.49,1.22-4.62,2.38-6.76,1.17-2.92.04-6.13,1.06-9.1,1.02-3.64-5.62-8.38-3.66-11.5l-.48-.44c-.97-.47-1.63-1.19-2.15-2-1.73-2.38-5.37-4.88-8.22-4.26-.86,1.84-1.73,2.6-2.99.57-1.52.49-2.05-1.06-2.92-2-1.35-.34-3.2.4-3.77-1.37.69-1.58,2.41-2.91,2.39-4.82-.04-.92.2-1.75.77-2.45,1.12-1.84.54-5.73,3.47-5.67,3.18.08,6.35.03,9.53,0,.9.1,1.34-.59,1.95-1.2,2.07.55,6.1-.25,6.76,2.53,1.36-.2,2.6-.6,3.73-1.31h0c-.27-1.05-1.03-2.08-.64-3.19.58-1.2.29-2.66.82-3.85,8.53-1.33,4.3.74,9.41,2.61.67-.89,1.23-1.75,1.68-2.71-.63-.84-1.69-2.31-.03-2.5,1.45-.37,3.39,3.61,4.03,4.85-1.3,2.21-1.6,2.36-1.84,7.49-.55.67-1.12,1.38-1.63,2.02.05,4.11,2.27,7.07,5.1,9.57,3.84,3.59,7.57,7.23,11.46,10.72.39-.98.78-1.81.93-2.76-.94-1.59-2.12-2.59-.35-4.16-.28-1.05-1.48-1.5-1.48-2.66.36-.84.86-1.38,1.77-1.33.28.01.49-.23.42-.71-1.64-1.18-3.24-2.53-3.15-4.89-.2-1.62-2.07-1.85-2.4-3.84-1.81-.1-4.13-.47-4.3-2.82-.2-2.64-3.26-4.14,1.3-4.01.41-.41.75-.76,1.06-1.06.83.31,1.22,1.17,2.02,1.32,1.04-2.35,4.09-2.06,5.99-1.2.46.29.93.66,1.64.45,1.29-3.08,2.22-4.47,5.05-6.07,1.71-1.42,3.4-.72,5.41-.47-1.17-2.26-3.88-2.38-5.75-3.78Zm-338.82.77c.12-.43.6-.16,1.01-.23-.25.76-.86.74-1.01.23Zm44.36-9.61c-.1.13-.15.2-.21.27-.09-.12-.18-.23-.27-.35.14-.2.3.02.49.08Zm-3.19,19.9l.04.15-.11-.02.07-.13Zm16.99,98.46c-1.42-.14-1.57-2.47-2.36-3.91,1.28.37,3.01,2.91,2.36,3.91Zm4.71-16.68c-1.72,6.06-1.49,10.3-8.87,7.72-2.51-1.77-4.54,1.31-6.72,1.29-1.78-.36-3.5-.94-5.22-1.55-1.53-.86-3.53-.07-4.87-1.17-1.36-1.5-3.62-.33-4.87-2.14-2.02-2.46-5.59-1.68-7.45.83,0,.98.02,2.16,0,3.34-.13,2.63-2.81,3.79-4.35,1.57-1.59-1.78-3.87-1.29-5.78-2.2-2.21-1.31-1.56-3.86-4.47-4.22-1.62-.77-3.39-.15-5-.66-2.01-1.08-4.13-2.13-5.67-3.92.73-1.48,3.67-2.87,2.39-4.8-.44-.51-.95-.99-1.08-1.85.3-.61.63-1.28.93-1.89-.04-.14-.05-.23-.08-.24-.88-.15-.88-.14-1.95-.93-1.74-1.4-3.54,1.3-5.76.61-1.62-.04-3.33-.27-4.87.42-.54.24-1.02.28-1.58.07-1.56-.58-3.09-.43-4.66.13-2.57.88-5.6.4-7.78,2.43-1.49.6-2.88,1.4-4.19,2.39-1.96,1.1-4.55-.8-6.89-.19-4.05-.66-1.82-4.58,1.23-4.57,6.42.09,4.12-1.87,7.95-3.15.17-1.51,1.19-2.36,2.17-3.31-1.8-3.43.9-4.79,2.7-7.25,1.47-1.22,3.49-1.34,4.93-2.71v-3.62c2.7-4.01,6.21,1.09,9.09-1.31,2.73-1.91,6.35-5.25,8.42-.56,1.19,3.17,4.72,6.05,7.54,7.52,2.98,1.72,8.67,5.36,5.5,9.5,1.16,1.41,2.28-2.37,3.11-3.14-.44-.71-.89-1.44-1.3-2.1.41-2.58,2.96-1.67,4.18-.46.35-.31.29-.68-.02-1.08-1.01-1.28-4.65-2.82-5.36-3.41-.15-.44-.32-.93-.47-1.37-2.71-.74-4.02-.84-5.13-4.02-1.62-3.21-4.3-2.27-3.62-7.03,1.72-1.5,3.65-2.08,3.55,1.04.77.36,1.08-.6,1.74-.54.95.39,1.1,1.69,1.55,2.55.58,1.21,1.4,2.1,2.68,2.43,1.9.41,3.07,2.17,4.73,3.08,5.69,3.77,2.23,3.32,3.31,7.19,1.78,2.29,3.1,4.94,5.34,6.76-.21.37-.4.7-.61,1.07.81,1.5,1.14,3.47,3.03,3.71.83-1.11,1.03-2.55,1.54-3.92h1.64c.4-.61.1-1.3.22-2.01-.89-.28-1.66-.53-2.44-.77-.08-.3-.2-.53-.18-.74.15-1.33-.71-2.33-1.01-3.51.36-2.68,2.83,2.2,3.16-1.67,1.93-.93,3.95-.94,5.83.12.45.15.82.19,1.13.15,1.43-.19,1.94-1.91,5.24-1.36.26.31.52.6.76.88-1.23,2.03-3.88,1.13-5.96,1.24-.24.01-.48.04-.7.09-1.89,3.44-.11,1.64.95,3.78.01,2.71.76,5.58,3.18,6.84,1.15,1.36,2.17.34,3.62,2.45h2.05c1.53-3.01,2.59-1.91,4.8-.4,1.8,1.97,4.27.47,5.74-1.26.63.1,1.26.27,1.9.3.57.03,1.08-.6,1.82-.24-.87,4.33,1.29,5.37-.73,9.78Zm9.41-23.05c-1.5-.22-3.01-.9-4.37.32-3.48-.82-6.53-2.88-9.92-3.62-2.52-.21-4.75.62-6.79,2.13-.57.43-1.16.62-1.84.59-3.87.32-6.13-.46-7.97-4.37.86-1.87,2.06-3.62,2.33-5.75.11-.71.33-1.38,1.06-1.67.88-.39.64-1.54.83-2.4,1.17-.81,2-1.98,2.73-3.29h2.04c1.31,2.17,2.93.67,4.35,2.25-.56.52-1.05.97-1.64,1.51,1.3.66,1.97,1.74,2.19,3.06.5.31.85.06,1.15-.17,1.45-1.32,3.26-1.42,4.94-2.03-.9-1.11-2.3.64-3.68-2.69,1.4-2.3,7.03-4.13,9.55-3.31-.91.62-1.56,1.05-2.28,1.54.18.44.35.85.53,1.29-.28.89-.88,1.52-1.42,2.54-.26.13-.75.38-1.41.72,2.32,1.39,4.49,2.47,6.59,4.2,1.23.98,2.57,1.84,3.94,2.54,3.27,2.35,2.87,5.42-.9,6.61Zm52.95-89.9h1.25c-.43.47-.71.5-1.25,0Zm4.54,9.29c-.26-.21-.52-.3-.57-.46-.22-1.42-1.46-1.69-2.12-2.71,1.48-1.05,1.83.4,2.86,1.17-.06.72-.11,1.28-.17,1.99Zm76.02,138.73s.03-.1.05-.14c.12-.04.14.04.16.15-.07,0-.14,0-.21,0Zm125.73-130.79c.34-.42.62-.34.91-.03-.33.4-.61.31-.91.03Z"/>
        <path class="cls-13" d="m108.28,97.43s-.02.02-.03.03l.03-.03ZM-9.62,142.46s0-.01,0-.01c-.02,0-.03-.01-.05-.01l.05.03Zm159.92-9.49c-.93-.47-.12-.89-1.68-1.77.41-.34.73-.6,1.14-.93-1.53-1.27-3.32-1.45-4.98-2.08-.03-1.66-1.51-2.41-2.02-3.84.5-.45.96-.86,1.44-1.29-.05-.46-.26-.98-.13-1.37.28-2.82-1.13-5.5-1.79-8.21-2.27.63-3.01,3.6-5.11,4.31-1.19.05-2.11.87-3.2,1.27-1.46.77-1.8-1.66-3.35-1.99-.21-3.92,4.71-5.41-.65-6.53-1.04-2.25-1.98-4.12-4.5-3.04-2.61.94-5.03-1.92-7.46.05-.07,3.3-2.23,2.7-2.22,5.23.05,2.71-3.27,3.17-4.62,5.01.69,1.39,2.09,2.51,1.49,4.17-.65,1.97-1.74,3.53-3.38,4.65-1.82,1.24-3.73,2.25-5.85,2.74-.72.16-1.36.39-1.89,1.2.82,1.75-.89,3.38-.79,5.19-.08,2.77-2.85,3.91-4.9,4.61-1.3.36-1.31-2.02-2.04-2.79-.9-1.37-.11-2.7.32-4.14.3-1.86,1.3-3.06,2.21-4.66-2.41-.63-4.68-.07-6.73-1.61-1.31-.76-2.78-1.22-3.54-2.73-.21-.38-.57-.8-.94-.91-1.62-.51-3.23-1.19-4.98-.87-.47.09-.98.2-1.41-.2-.41-1.61,1.12-3.03.51-4.6-.66-.37-1.46-.16-2.08-.8,2.05-4.59,10.21-10.76,14.84-11.44,1.17.08,1.97-.78,1.72-2.08,1.12-.18,2.2.14,3.08-.69,1.43-1.03,3.28.21,5.15-1.26,2.39-.94,3.8-3.76,6.33-4.15.38-.69.77-1.37,1.1-1.96,2.45-.76,2.72,1.86,4.87-.46.47.26.9.49,1.33.73,1.81-1.08,3.93-1.29,5.52-2.84-.07-.83-.13-1.63-.2-2.43.96-.68,4.06-1.08,2.53-2.77-1.52-1.64-6.44-2.48-6.05,1.13-1.59.46-2.87,1.46-4,2.54-.54-.04-.97-.06-1.41-.09-.22.54-.41,1.02-.63,1.54-.68.2-1.35.41-2.05.62-.42-.58-.72-1.1-.67-1.77,1.1-.76,3.61-2.67,1.26-3.52-1.72-.04-4.27,4.42-3.34-.64-.47-.31-.88-.58-1.39-.91,1.84-1.41,2.64-3.73,1.36-5.88,1.29-.5,2.35-1.42,3.32-2.41,1.08.14,2.12.51,3.13.12.76-.64,5.03-1.93,4.29-3.04-4-.05-9.22-.76-11.2,4.06-.72,1.46-2.42,2.31-3.76,2.91-.96-.32-1.44.45-1.88,1.07-1.37,1.94-2.91,2.36.04,3.89-.05.72-.1,1.41-.15,2.03-2.23,2.02-5.23,1.38-6.81,4.23-.27-.28-.53-.54-.83-.85.31-.5.58-.93.84-1.36-.17-.4-.32-.76-.5-1.2,2.72-.12,5.54-1.94,1.68-3.76-1.29.62-2.58,1.24-3.84,1.84.15.96,1.06.94,1.43,1.64-.79.41-1.68.52-2.25,1.31-1.66,2.17-4,.09-6.06.8-1.05.08-2.26.54-3.18-.22-.95-1.16-3.01-.27-3.39-2.03-.27-1.33-.91-.83-1.25.15-1-.19-1.94-1.04-3.02-.23.15.31.28.6.45.94-4.44,1.29-2.52,3.72-5.48,4.14.11-.61.2-1.1.28-1.57-.61-.59-1.06-1.28-1.7-1.6-2.32.03-8.11,2.14-9.3-.36.84-.83,2.3-.13,2.79-1.5-.4-.58-.94-.84-1.61-1.16-2.28,1.5-5.78-1.03-8.18-1.67-2.13-1.31-4,.44-5.97.73-.14-.38-.3-.79-.49-1.3-1.19-.01-2.87,2.62-3.38.5,0-.65-.03-1.11-.37-1.72-2.38,1.17-4.04,1.57-6.55.66-.44.36-.87.7-1.34,1.08-1.55-1.04-3.32.28-4.93.56-1.08.56-2.12-.16-3.18-.12-1.28.43-2.73.56-3.53,2.01-1.67-.1-3.21-.41-4.49-1.54-1.35-1.14-3.24-.25-4.64-1.44-1.86-1.08-4.11-.31-6.14-.57-3.18-.35-6.24-1.04-9.48-.91-.37-.43-.74-.85-1.12-1.29-3.53.77-3.88-1.27-6.57-.63-3.64,1.25-7.5,1.64-11.26,2.33-3.73.27-6.8,2.87-10.51,3.34-1.93.66-4.45.07-5.87,1.88.48.96,1.24,1.73.8,2.88-.02.07.1.19.16.29.54.36,1.27.08,1.9.52-1.14,2.53-3.82,2.91-6.03,2.34-.08-.32-.16-.66-.27-1.1-3.32.8-6.57,1.5-9.92,2.39.2.37.35.66.49.91-.28.56-.54,1.06-.78,1.54,1.57,2.04,2.98-.44,4.79.71,1.3.83,3.85-1.57,4.59.04-3.16,3.3-3.22,2.77-7.17,3.43-2.08,1.04-4.56-.15-6.44,1.61-1.7,1.56-6.42,1.83-6.96,4.4-.03,1.15-.99,1.53-1.64,2.19-.07,4.15,4.29-.4,3.8,2.12-.58.96-1.77,1.36-1.82,2.65.88-.2,1.67-.38,2.45-.56.59.42,1.13.81,1.72,1.23.98-.57,1.93-.75,2.76.4-2.59,3.47-8.28,4.83-12.11,6.38-.54.27-1.66.34-1.6,1.19,2.62,1.46,4.89-1.84,7.43-2.2,1.44-.49,3-.84,4.36-1.55,3.59-2.32,7.99-2.48,11.49-4.99v-.97c1.57-1.1,3.51-1.35,5.14-2.25,1.68-.93,3.26-1.96,5.15-2.34-.52,2.39-3.47,1.88-4.09,4,2.61.55,5.1-2.19,7.84-1.91,3.59-.48,1.87-3.57,6.9-2.83.86,1.43,1.96,2.67,3.55,2.67,2.5.1,4.98.52,7.39,1.11.13,1.74,1.54,2.6,1.97,4.05.52.06.95.1,1.56.17.2-.33.44-.73.67-1.12q1.1,1.04,2.26.2c1.57,1.71.25,3.63.19,5.27-.08.82-.26,1.48-.93,1.86.05.55.25,1.07.11,1.46-.43,1.18.35,2.08.58,3.17-.67,1.18-1.71,2.04-2,3.32.37.32.74.63,1.14.98-.33.44-.6.8-.89,1.18,1.4,3.75-1.14,2.85-.44,5.61.65.4,1.99.44,1.71,1.52,3.28.56,1.02,1.59,4,3.42.22,2.43-.18,3.85-1.52,5.29-.44-.74-1.06-1.12-1.89-1.12-.74,0-1.42-.57-2.24-.46-1.03,8.21-8.35,12.79-11.02,20.09-.27,1.62-1.43,2.76-2.22,4.1-1.05,2.76-2,6.6.41,8.86-.39.53-.73.99-1.05,1.44,1.01,2.34-.63,2.81.27,4.62.55,1.24,1.18,2.46.68,3.85-.03.09.06.22.12.4,2.08,1.1,5.2,2.26,5.66,5.04-.09,3.47.65,7.07.86,10.48,1.67,1.7,3.13,3.94,1.98,6.39-.47.26-.94.51-1.36.74.12,1.53,1.37,2.16,2.5,2.64,3.85,1.79.78,4.46,1.99,6.65,1.66,1.48,2.97,3.19,4.22,5.06,1.22-.69,1.27-.83.82-1.87-.33-.76-.65-1.49-1.44-1.85-.44-.2-.56-.67-.63-1.17-.32-5.1-2.2-9.67-3.83-14.4-1.58-2.57-2.02-5.99-.08-8.51,6.14,1.18.77,6.86,5.93,12.35.22.25.54.55.56.84.21,1.54,1.56,2.49,2.27,3.68-.2.77-.36,1.4-.51,1.98,2.49,2.25,3.86,5.34,5.83,8.1,1.31,2.03,2.22,5.09,1.58,7.51-2.25,4.17.49,5.26,3.07,7.74,1.35,1.65,3.52,1.5,4.92,3.02,3.4,2.64,7.58,4.3,11.46,6,2.47.79,4.67-3.12,7.05-1.1,2.88,1.56,3.75,6.25,7.13,6.68,2.81.4,5.48,3.23,8.53,2.32.97-.08.55,1.21.46,1.88,7.59,7.6,1.28,7.51,5.34,9.5.36-.21.63-.38.8-.49,1.03,1.27,2.68,1.82,3.12,3.4.07.68.51.99,1,1.3,1.27.92,3.11-.03,4,1.62.1.18.34.36.53.38,1.05.06,1.21,1.13,2,1.54.35-.26.74-.55,1.1-.81-.13-.67-.25-1.24-.37-1.83.72-.88,1.4-1.71,2-2.45.24-.07.47-.1.67-.1l-.07-1.8c-1.62.47-3.14,1.74-4.65,2.44-2.45-.41-3.62-2.41-5.07-4.32-2.68-3.72-.22-8.86.66-12.92.94-2.08-.36-3.62-1.77-5.01-1.84-1.21-4.49-.66-6.54-.2-1.16.57-2.22-.73-3.33.01-.77.41-1.31-.33-1.89-.83,1.78-2.34,2.03-5.24,2.45-8.11.53-.26,1.02-.51,1.52-.76.71-2.2.77-4.62,2.51-6.27.48-.47.8-1.13.71-2.02-2.68-.59-5.46-.44-8.01.7-.81.28-1.1,1.07-1.33,1.88-.64,2.25-1.87,4.13-3.18,5.97-.38.53-.83.84-1.4.52-2.32-.85-4.62,1.16-7,1.1-.91-1.1-2.1-1.54-3.32-1.92-3.71-8.49-4.6-12.09-.7-20.88.61-1.36.89-2.75.85-4.28-.06-2.36-.14-1.8,1.21-3.45,2.43-4.05,5.89-2.37,7.42-6.31.52-.04,1.07.41,1.69.1,2.06-1.26,4.11.84,6.17-.2,1.01.51,1.62,1.8,2.95,1.4,1.07-.33,2.07-.72,2.76-1.89-.53-.28-1-.53-1.55-.82.11-.3.2-.54.31-.86,2.52.99,5-1.11,7.61-.01,2.29-.24,3.4.34,4.96,2.12,1.03-.36,1.83-1.04,2.78-1.31.82.66,2.95,3.49,2.46,4.57-.54,1.4-.15,2.91-.47,4.34-.07.3.08.7.22,1.01.96,1.96,1.53,4.23,2.88,5.9,2.99-1.31,2.66-6.05,2.33-8.91-.64-6.36-2.18-11.11,4.26-14.76,2.06-.73,3.19-2.88,4.96-3.97,2.13-.65,3.49-2.74,5.56-3.52.24-.61.45-1.14.62-1.57.58-.23,1.03-.4,1.42-.56.37-1.33.77-2.48,1.32-3.65-.26-.42-.47-.76-.74-1.19.76-1.94.96-4.53,2.06-6.19,1,.77-.99,1.88.82,3.65.57-.52,1.05-.96,1.44-1.31.28-1.14,0-2.19.41-3.17,3.63,1.05,3.31-4.12,6.22-4.46.28-2.93,3.99-1.19,5.48-2.69,1.85-1.08,1.95.85,2.48-2.61.29-1.9,1.8-3.02,2.94-4.34,1.08-.64,2.46-.59,3.34-1.71,1.6-1.31,4.04-.36,5.55-2.19,1.78-.83,3.77-1.27,5.62-1.94.92-.29,1.04-.18,1.45,1.04-.39.53-.97.47-1.5.55-1.93.33-3.72,1.5-4.54,3.44.18.33.37.67.54,1,2.28.31,3.31-2.17,5.19-2.83,3.02-.82,6.55-1.38,8.55-4.2.71-.17,1.47.72,2.03-.39-.16-.61-.35-1.27-.79-1.81-1.97.32-2.26,3.31-4.42,2.98-3.07.05-5.71-1.33-4.97-5.03.37-.48.57-.88.46-1.55-.99.17-1.91.51-1.88-1.08,1.76.03,3.42-.29,4.57-1.8.81-1.39-1.94-2.14-2.9-1.73-3.33,1.11-6.79,1.84-9.72,3.94-.2-.3.01-.46.13-.7,1.44-1.71,3.16-2.89,5.25-3.47.68-.19,1.36-.34,1.84-1.04,2.2-3.65,11.59-1.42,15.66-2.03,3.29.04,5.4-3.66,8.73-3.62,1.4-.25,2.77-.99,3.76-2,.46-1.34,1.19-2.53,1.34-3.99-.55-.27-1.05-.51-1.53-.78Zm-48.54-35.93c.63.51,1.7.59,1.86,1.49-.59.92-2.35.06-1.86-1.49Zm-11.34-5.35c.08.06.15.12.22.18-.1.08-.21.16-.31.24-.15-.21-.16-.32.09-.42Zm-146.63,26.31s-.05-.08-.08-.12c.04-.03.09-.06.13-.08.05.02.09.04.14.06-.07.05-.13.1-.19.14Zm23.51-6.74c-1.08.17-2.15.2-3.25-.21.86-.43,1.82-.72,2.7-1.03q.58.44.78,1.02c-.08.08-.14.21-.23.22Zm64.36-23.84s-.08-.03-.12-.04c.02-.12.08-.09.16-.06-.01.03-.03.1-.04.1Zm80.71,65.38c-.45-.38.12-1.06.58-.96.48.31-.23,1.11-.58.96Zm30.71-19.17c.32-.84,1.8-1.87,2.25-.75-.74.31-1.32.93-2.25.75Z"/>
        <path class="cls-13" d="m180.91,328.38c0,3.91-2.25,7.54-4.95,10-1.4,1.77-1.83,4.28-2.91,6.29-.51.14-.98.27-1.46.4-.4.93-1.08,1.76-.81,2.83.72,3.81.55,7.66.34,11.5-.12,1.64-1.45,2.84-1.15,4.55.14,1.53-.19,2.93-.89,4.25-.87,1.92-2.07,3.71-1.96,5.98-.88.93-2.25,1.41-2.29,3.1-2.43.33-5.02-.83-6.88,1.14-3.92,3.46-4.62,1.29-8.56,7.14-.1,2.01-.28,4.18.47,6.31.39,1.1.36,2.26-.38,3.2-1.66,2.06-2.22,4.57-3.16,7.04-.34-.34-.6-.61-.95-.97-1.87,1.71-2.06,4.51-2.65,6.91-.45,2.09-2.77,7.32-5.03,7.22-2.98.21-5.89-.41-8.54-1.9-.77,1.12.95,1.86,1.61,2.39,2.1.91,1.29,3.89,3.33,4.96,1.83,1.1-.35,3.33-.62,4.87-1.25,2.57-5.89,2.85-8.37,2.92-.7-.07-1.41-.14-2.11.34.28,1.07.89,1.86.63,3.05-.11.58.18,1.26.31,1.88.45,2.59-4.24,1.05-5.56.91-1.25,2.35,1.86,3.67,1.93,5.8-.04.3.35.67.59,1.09-.24.52-.5,1.09-.79,1.72.32,1.27.8,2.57.27,4.02-3.31,1.4-4.51,4.02-.99,6.23.72.77,1.64.8,2.58.97,1.21.35,1.7,1.87.95,2.97-1.39,1.58-2.73,3.19-1.69,5.46-3.45,2.25-1.53,4.16.52,6.62-1.56,1.67-4.35,2.22-2.74,5.15-.51.91-1.39.42-2.03.03-1.07-.76-1.7,1.26-2.76.11.52-1.97-1.73-2.72-2.39-4.16-.38-1.84-2.43-2.59-3.13-4.2-.07-.56-.39-.81-.75-1.08-.56-.41-.97-.95-1.1-1.7-.13-.74-.85-1.17-.99-2.01-.1.24-.2.47-.33.82-2.48.39-1.6-1.47-1.75-3.31h.97c-.07-.53-.13-.97-.19-1.43.18-.25.37-.52.6-.83-.47-.18-.87-.34-1.38-.54-.15-.71-.3-1.45-.47-2.3-1-.71-2.31-.8-3.49-1.5.17-.62.39-1.18.74-1.71,1-.56,1.41.25,2.02.92,1.71.45.37-2.57.44-3.51-.15-.84-.74-1.57-.43-2.52-.63-1.86-1.19-3.82-1.14-5.85-.02-1.44-.07-1.54-1.22-3.04-.53.14-1.11.3-1.65.44-2.5-1.41-1.68-4.16-1.77-6.71-.07-2.02-1.52-3.64-2.22-5.45-.84-3.11.95-6.55.81-9.77.3-4.16.1-8.27-1.6-12.13-.92-1.71.8-3.57-.28-5.13-1.2-1.43-.1-3.25-.25-4.94.04-2.66.07-5.33.03-7.99-.11-3.31-1.22-6.55-.46-9.87.53-3.69-.94-7.35-1.35-11-.49-2.77-5.37-6.27-7.69-7.54-3.69-2.2-8.88-4.67-9.59-9.66-.01-.87-.37-1.61-.8-2.3-2.44-3.88-4.37-8.06-6.32-12.24-1.71-3.19-2.89-6.97-6.01-8.85-.3-.27-.51-.63-.38-1.09.14-.49,0-.93-.21-1.36-1.84-3.01.18-5.55,2.48-7.35.12-.57.15-1.26-.07-2.01-2.74.9-2-2.36-2.3-4.37,1.1-1.61,1.88-3.68,2.1-6.08.92-.57,1.86-1.16,2.83-1.75.21-.64,0-1.39.67-1.91.38-.3.47-1.03.71-1.6,2.86-.99,3.19-4.21,3.15-7.18.09-3.96.35-6.94-2.15-10.16.12-.65.23-1.23.34-1.85-.92-.8-1.69-1.88-3.02-1.84l-.07-1.8c2.84-.34,4.46,2.52,6.32,4.27.17-.1.32-.14.34-.21.21-1.51,1.38-2.34,2.32-3.32,1.51-1.56,1.02-4.34,2.98-5.61.45.1.92.21,1.47.34,1.45-1.71,4-1.01,6.05-3.5.78-.77,1.9-2.04,2.34-.03-1.4.99-2.89,2.2-.95,3.72,2.23-1.08,6.66-3.96,8.01-.29.18,1.1.85,1.43,1.78,1.38,1.67.04,3.5-.65,4.89.73,1.08.85,2.71.98,3.79-.03,1.22-1.19,3.66-1.36,4.6.36.81,1.13,2.6,1.32,3.63,1.93.84,1.14,0,2.2.19,3.19.43.4.88.32,1.28.16,1.76-.31,3.32,1.59,4.46,2.84.24.31.52.69.55,1.06.53,2.04,2.62,2.66,3.85,4.33,2.48.83,5.05-.37,7.48.55,3.14,1.32,3.15,1.28,5.54,3.88,2.03,1.56,2.64,3.89,2.97,6.44-.17,2.16,3.23,2.75,1.8,4.9-1.03,2.12-4.39,4.1-2.72,6.68,1.34.19.65-2.54,2.65-3.48.89,1.03,1.69,1.1,2.98.73.38.19.96.41,1.36.8-.15,1.83-1.28,4.02-3.18,4.09-.4,0-.86-.04-1.25.45,2.74.85,4.4-.83,5.61-3.19,2.72-1.09,5.14,1.42,7.56,2.44,1.82.85,1.73,1.92,1.46,3.85,1.2-.11,2.13-1.06,3.36-1.38,5.79,3.47,7.01-.06,10.18,2.66,3.58,2.3,5.36,6.86,10.1,6.3,1.77,2.15,1.94,5.18,2.02,7.92Z"/>
        <path class="cls-13" d="m622.77,428.17c-.54-.89-1.04-1.72-1.6-2.64-1.45.74-2.71,1.7-4.11,2.39-2.07-.82-4.12-1.63-6.15-2.43-1.48-2.38.92-4.95.05-7.48-.74-.95-1.37.35-2.05-.27.2-1.2,1.79-2.35,1.19-3.64-.48-.54-.85.1-1.47-.03-.25-1.57,2.21-2.3,1.54-3.76-1.13.39-3.92,2.45-6.83,5.04-1.34-1.2.66-4.46-1.32-5.49-.05-.21-.11-.32-.09-.43.63-2.22-1.43-2.61-2.91-3.02-1.44,0-2.17-1.57-3.57-1.55-2.84-.15-5.58.22-8.12,1.72-.54.32-1.11.52-1.73.44-3.13-.36-8.3,1.86-10.35,4.41-1.52,1.78-5.71.49-7.92.84-1.81-.22-3,1.33-4.61,1.97-1.98,1.37-4,2-6.35,1.7-1.44.03-2.41-1.59-3.22-2.69-.32-1.69,2.4-1.62,2.77-4.22.89-2.01,1.47-3.94.65-6.11-.19-1.06-.25-2.11.16-3.14,1-3.46-.75-6.83-.69-10.5,3.13-1.77.92-4.63.51-7.48.81-2.07,1.99-3.87,1.93-6.25.77.1,1.39-.1,1.91-.71,1.45-1.63,3.43-2.54,5.11-3.84,2.16-1.51,5.03-.6,7.09-2.5.52-.38,1.05-.64,1.68-.58,2,.18,3.57-.97,5.17-1.97,1.17-1.05,1.41-2.98,2.87-3.84.07-1.99.23-3.75,2.19-4.61.63.72,1.06,1.24,1.66,2.05.35-.4.64-.72.93-1.05-1.17-3.37,1.36-1.21,2.04-3.08.09-2.1,1.47-2.23,2.35-3.6.27-.79.8-1.05,1.37-1.36,3.1-1.78,4.86-3.12,6.35,1.39,1.88-.88,4.58,1.73,3.41-2.18,1.25-1.77,2.35-3.58,3.68-5.25,2.1-3.12,4.8,1.16,5.86-3.65,2.3.96,4.4,2.22,6.94,2.02.9.09,1.75.66,2.61.22,1.39,1.28-1,3.02-1.93,3.64-.42,1.84-.91,3.27-1.78,4.89,1.62,2.65,4.19,4.1,6.61,5.71,1.58.78,2.08,3.06,3.98,3.2,3.8.18,5.03-7.61,5.5-10.8.06-1.8.57-3.49,1.34-5.07-.09-1.8.97-3.2,1.45-4.8.22-.71.41-.71,1.31-.5.35,1.96.74,3.93,1.05,5.9.31,1.49-.29,3.19.65,4.5,1.35.32,2.44.83,3.39,2.02.14,2.1-.35,4.34.37,6.33.47,1.07.52,2.2.21,3.29-.34,1.19.1,2.22.4,3.27,1.3,1.69,3.27,2.76,4.88,4.24-.19.97,0,1.85.59,2.62.82,1.24.13,2.79.7,4.17,2.06.32,2.84.56,2.12,3.04,2.8,3.34,4.67,6.88,2.91,11.38-.12,6.31-1.76,7.54-4.39,12.87-1.44,2.49-3.13,4.96-5.5,6.47-2.47,2.04-4.19,4.99-6.34,7.4-2.66,2.39-3.77,7.79-7.61,8.02-1.73-.11-3.21.55-4.64,1.5-1.38.82-2.48,1.79-4.19,1.86Z"/>
        <path class="cls-13" d="m138.22,78.31c-1.37.14-4.33.14-2.76-2.11,1.52.08,2.92.72,4.47.52.75-.04,1.27.24,1.55,1.09-.14.26-.3.54-.5.89,1.07.5,2.14,1.35,1.86,2.81,1.15,1.93,3.56-.87,4.2,1.3,1.28,2.29,4.23.29,5.43,3.29-.63.21-1.12.37-1.73.58.3.31.55.56.88.89-1.93.66-1.7.11-3.14,2.2,1.86,1.07,3.6,2.31,5.7,2.39.52.74.99,1.4,1.46,2.07.75.17,1.48.34,2.32.54-.2,1.14-1.38.98-2.04,1.58-1.4,1.78-2.78.57-3.93,3.16-2.59-.17-2.47-3.41-4.73-4.12-.97.31-1.57,1.31-2.54,1.85.57,3.67,2.62,2.21,3.06,6.39-.77.56-1.64.8-2.16,1.64-1.23,1.04-4.31-1.56-5.87-1.77-1.04.94,1.84,2.51,2.2,3.51,1.17,2.58-6,.16-6.1-1.21-.74.07-1.33.12-1.85.17-.74-.63-.94-1.39-.83-2.08-.67-.98-1.25-1.83-1.95-2.85-1.78-.66-1.77-.27-3.41.11-1.82-.56-4.26,1.86-5.5-.21q.5-.98,3.23-2.34c2.37.62,4.78.56,7.15-.7v-1.44c2.16-1.81,6.46-1.31,5.71-5.61-1.7-1.59-3.52-3.03-4.82-5.06-.4-.61-.91-1-1.68-1.11-2.12,3.56-4.3-.36-7.76,1.6-2.17-1.18-4.68-.06-6.92-.98-1.27-.81-3.33.42-3.97-1.33.88-1.04,2.12-.15,3.03-.63.02-1.26-2.26-.06-2.38-1.51,3.03-3.48,7.65-6.3,12.27-5.61-.05.56-.5.56-.82.69-1.67.64-2.92,1.81-3.94,3.46.2.78.47,1.66.79,2.43,1.41-.26.87-1.16.65-2.12.7-.74,1.88-.84,2.02-1.98,2.15-2.05,5.43-2.01,8.16-2.64.53.52.73,1.12.99,1.78-.24.49-.49.99-.76,1.54.81.55,1.69.66,2.48.94.64-.63,2.6-1.11,2.49-1.99Zm.63,18.21c1.24-.25,2.28-.46,3.43-.69-.42-1.09-1.07-1.65-2.09-1.84-.79.59-1.37,1.27-1.34,2.52Zm12.07-11.3c-.08-.22-.23-.08-.38-.04.09.2.23.08.38.04Z"/>
        <path class="cls-13" d="m616.14,315.08c-2.31,3.47-1.86.08-2.87-1.76,1.21-1.4,2.72-1.22,4.38-1.78,4,5.87,3.29,1.55,7.08-.79.57-.28.98-.95,1.48-1.37,1.21-1.22,2.66.37,3.87.86,1.95,1.3,4.27,1.33,6.32,2.37,2.75,1.55,5.88,2.39,8.51,4.09,3.91,2.98,1.62,3.87,3.68,5.08,1.46.96,3.12.94,4.06,2.72-.11.64-.59.77-1.06.95-3.31.79,1.96,4.14,2.2,6.39.27.54,6.48,6.14,3.85,5.82-2.04-1.79-5.28-.55-6.95-3.03-1.73-1.91-2.09-5.09-4.88-5.62-2.22-1.2-4.02-.05-5.71,1.53.09.64.16,1.15.23,1.68-.69.86-1.4,1.58-2.53,1.18-1.4-.57-3.29.14-4.23-1.39-.69-.89-1.31-2.05-2.53-2.01-1.25-.42-4.89,2.23-4.62-.43.34-.81.74-1.53,1.65-1.82,2.16-.87-.13-4.96-.81-6.43-1.93-1.88-4.65-2.64-7.08-3.48-1.36-.89-2.71-1.87-4.03-2.75Z"/>
        <path class="cls-13" d="m578.19,286.75c-.49,1.18-1.23,1.04-2.28,1.36.07.51.14,1,.22,1.57-.52.21-1.03.41-1.51.6-2.3,4.38.31,3.3.56,6.63-.45,1.83,1.96,2.12,2.31,3.69-.41.56-.94.43-1.41.51-2.24.15-1.84,2.74-1.97,4.52.02.85-.61,1.34-1.21,1.76-1.91.92-1.74,5.75-2.4,7.99-1.1.29-2.25.75-3.25,1.27-1.19-1.96-2.28-2.31-4.24-2.72-1.16,0-2.31.64-3.5.93-.3-.6-.55-1.1-.84-1.67-1.17.35-2.3.61-3.38-.53-.32-1.3-.89-2.72-.44-4.41-1.95-1.77-2.81-4.18-3.19-6.83.52-1.47.52-4.31,2.58-3.33,1.05.32,1.94.9,3.07.77,1-6.69,3.31-2.28,5.74-6.31,2.19-4.8,4.32-2.76,6.2-6.39,4.45-8.66,2.66-1.15,8.94.59Z"/>
        <path class="cls-13" d="m382.76,385.67c-4.5-1.08-3.77-6.45-4.45-10.29-.31-3.4,3.71-5.6,3.25-8.97-.18-2.33-1.3-4.86-.61-7.13.89-2.22.97-3.27,3.25-4.04,1.67-.28,3.11-1.95,4.71-1.96.84-1.66,2.22-2.67,2.57-4.59.23-.69.89-1.22,1.45-1.62,1.79-.8.39-3.05,2.03-3.57,2.52,2.19,1.55,5.84,2.47,8.82.26.76.21.78-.24,1.92-.44-.02-.91-.05-1.4-.07-.99,9.15-4.81,17.74-7.33,26.56-.59,3.58-2.84,3.91-5.69,4.96Z"/>
        <path class="cls-13" d="m146.08,67.44c.04.52.08.98.12,1.54-1.8.48-3.93,1.23-5.73.39-.54-.33-1.11-.47-1.73-.16-1.69.15-3.46-.13-5.17.17-1.91-.19-3.95.44-5.74-.43,1.26-1.4,2.92-.94,4.56-1.14.08-.42.14-.75.22-1.16,1.25-.97,2.71,0,4,.4,2.49-.26-.64-2.47-1.4-3.14-1.4.52-2.73,1.14-4.27.94-1.49-.37-3.99.92-4.58-1.2.84-.73,2.1.14,2.83-.75-.59-.76-2.59.19-3.66-.34-1.28-.63-.13-1.51.84-1.44.26-.07.61-.12.73-.32,1.56-1.72,4.12-1.43,6.1-2.3,2.18-1.01,3.85,3.39,5.83,1.91.62.71,1.14,1.29,1.66,1.89-.09.26-.18.52-.31.89,1.19.26,2.28.79,3.56.82-.48-1.22-1.76-1.42-2.05-2.77.91-1.05,2.12-.69,3.23-.8,1.18-.12,2,.9,3.14,1.15.47-.46.67-1.27,1.43-1.18.83-.24,2.85.56,3.03-.63-3.77.28-7.55-.44-11.26-.25-1.08.31-2.12.42-2.79-.87,1.12-2.56,7.84-1.16,9.97-2.26,1.64-.86,3.38,1,5.09-.07,4.69-1.45,9.66-.75,14.45-1.08,5.98.33,11.99-.68,17.8,1.13-3.09.7-5.69,1.58-8.82,1.27-3.27,2.33-7.97,1.9-11.62,3.73-1.36.78-2.76.07-4.17.29-1.92.87-4.14.66-5.98,1.36.37.25.71.47,1.16.77-1.87,1.52-3.82,1.89-6.06,1.94-.36.06-.81.12-1.05.37-.96,1.02-2.16.93-3.37,1.3Zm9.51-8.16c-.77-.44-1.22-.32-1.82.35.77.08,1.32.29,1.82-.35Zm-10.41-.74c.08.43.4.24.68.2.16-.4-.48-.42-.68-.2Z"/>
        <path class="cls-13" d="m85.76,83.36c.78,1.63,2.67,1.14,3.12,2.96-1.01.06-1.87.11-2.84.17-.24.62-.48,1.26-.74,1.96-2.79.48-5.65.51-8.16-1.01-3.59,1.8-7.65,1.7-11.48,2.36-1.46.19-3.58.87-2.93-1.68-1.29-.58-3.04.27-4-1.02-.39-.54-.14-1.32.49-1.31,2.85.07,5.67-1.7,8.39-.13.63-.19,1.2-.49,1.69-.9-.17-1.11-7.41-.25-8.83-.62-1.62-1.44,2.52-1.53,3.33-1.73-.76-.85-2.26.03-2.5-1.28.55-1.17,2.61-.22,2.77-2.06-2.05.11-4.16,1.07-5.98,2.05-1.73,1.22-4.03.8-5.97,1.6-.8-.7-1.39-1.52-2.03-2.46,1.62-.81,2.99-1.7,4.52-2.58,1.15-.71,2.79-.73,3.6-1.96.62-.9,1.44-1.19,2.43-1.19,1.88.06,3.88-.38,5.69.31,1.37.62,2.58.27,3.93-.22.68.48,1.41.99,2.15,1.52-.17.39-.31.69-.48,1.07.37.17.71.33,1.05.49.08.37.16.75.26,1.26,1.19-.77,2.37-.78,3.64-.57.12.35.25.71.4,1.14,1.12-.21,2.33,0,3.16-1.18.32.12.62.23.88.33.24.69-.19,1.39-.27,2.05,1.07,1.24,1.86-1.03,2.44-1.77.97-1.62,2.92-1.91,4.34-.98,1.1,1.3-1.58,3.96-2.06,5.39Zm-20.39-5.23c-.19.24-.31.39-.44.54.32.19.58.32.86-.03-.12-.14-.23-.29-.42-.52Z"/>
        <path class="cls-13" d="m516.27,285.9c2.31,2.16,3.78.49,5.5,1.82,2.2,3.56,5.72,5.56,7.86,9.16,3.76.32,2.7,1.78,5.3,3.78.59-.05.79.44,1.1.86.68,1.03,2.38,1.43,1.44,3.18-.71,3.22,2.19.85,3.37,6.53,3.43.27,2.86,3.92,2.52,6.5-.07,1.28.14,2.59-.32,3.9-1.33.13-3.01.56-4.09-.39-1.95-2.16-3.91-4.32-5.82-6.52-2.11-2.4-2.74-5.76-4.14-8.62-.5-1.73-2.24-2.45-2.82-4.06-1.27-5.66-2.97-4.01-5.23-8.72-.77-1.79-7.21-5.29-4.67-7.42Z"/>
        <path class="cls-13" d="m264.47,118.48c-.33,1.06-1.27,1.4-1.48,2.33,1.3.77,2.75-.02,4.03.56.78,1.85-3.04,3.07-1.5,4.61,2.38.76,1.5,3.25,3.39,4.21,1.71,1.03,2.25,3.41,2.3,5.26.69,0,1.12-.06,1.85-.24.35.32.76.68,1.08.97.2,2.33-2.46,2.1-1.54,4.64-2.31,2.03-5.76.72-8.53,1.08-2.18.18-1.53,1.95-4.86,1.29.97-2.06,2.33-2.36,4.12-3.15-1.19-.91-2.57-.84-3.91-1.42.85-.82,1.37-1.31,2.21-2.05-.09-.53-.17-1.04-.25-1.53q.71-.54,2.18-.79c.44-.58.6-1.33.85-2.19-.47-.82-.99-1.71-1.49-2.57-.9-.08-1.7-.16-2.42-.22-.3-1.73,1.69-.93-1.12-3.39.03-.42.07-.88.11-1.33-.68-.51-.51-1.2-.4-1.92.48-2.81,2.62-5.12,5.38-4.14Z"/>
        <path class="cls-13" d="m592.32,194.96c.06-.33.02-.82.2-.96,1.26-.93,2.04-2.29,2.95-3.72,1.5-.27,3.17.05,4.63-.56.35-.15.63-.04.95.07.62.31,1.91.37,1.7-.7-.3-1.62.44-2.71.46-4.52.33.62.53,1.01.75,1.43,3.89-.99,4.78-6.64,2.73-9.92-.52-.98-1.18-2.1-.9-3.28,3.99.08,7.32,4.08,5.97,9.5.64,1.25,1.5,2.42,1.38,3.98.04,1.55,1.62,3.46.43,4.85-1.37-1.55-1.81-.57-2.7.73q-.84-.02-2.14,1.03c-.98-.06-1.79-.82-2.77-.84-.08.16-.2.3-.17.36.62,1.42-.32,2.67-.8,3.95-1.75-.25-2.02-1.69-2.34-3.11-.62-.29-1.21-.57-1.91-.9-1.77.75-3.68,1.22-5.45,2.19-.89.49-1.93.83-2.99.42h.01Z"/>
        <path class="cls-13" d="m251.16,99.13c-1.21,1.07-2.16,2.17-3.67,2.17-1.96.66-3.91,1.5-5.84,2.29-2.66,1.37-4.91-1.07-7.59-1.07-.04-1-.24-1.65-.92-2.4,2.24-1.81-.08-2.06-1.6-2.03-.46-.95,1.83-1.51,2.41-1.92,1.34-.6,1.92.54,2.23,1.87q1.5.15,2.48-.96c1.09.34,2.15-.33,3.29-.37,1.71-.05,3.46.34,4.83-1.2,1.88.55,3.03,2.04,4.38,3.59Z"/>
        <path class="cls-13" d="m587.77,318.08c-.95.25-1.89.49-2.86.74-.64-.91-.61-2.33-1.55-3.17-.18-.21-.17-.65-.2-.98.27-1.01.5-1.94-.75-2.38-.38.3-.8.64-1.28,1.03.61,1,.35,9.44-1.43,8.42-.71-.12-.72-.98-.65-1.59.75-2.57,1-3.86-1.24-5.44-.63-2.31,1.21-3.94,1.32-6.18.28-1.7,1.56-3.03,1.3-4.85-.01-.22.09-.44.2-.9,1.36,2.97-1.11,2.5,2.4,5.64,1.41-.95,2.85-1.85,4.66-1.91-.24,1.93-1.79,2.55-2.97,3.8.61,1.41,1.84,2.52,1.78,4.14-.29,1.54,1.62,2.14,1.26,3.67l.04-.04Z"/>
        <path class="cls-13" d="m545.18,327.46c-.69-.75-1.42-1.54-2.17-2.36-.05-.62.4-1.01.65-1.54,2.09-.28,4.24-.17,6.03,1.09,1.52,1.43,5.24,2.6,6.43.36,2.22.37,4.23,1.67,6.61,1.32-.22.92-1.06.6-1.32,1.18-.12.46.02.82.46.95.74.21,1.53.11,2.28.16,1.7.01,1.52,3.47-.3,2.58-2.37-1.14-5.16-.33-7.68-1.25-1.69-.04-3.06-1.33-4.7-1.41-2.23.21-4.05-.42-6.28-1.06Z"/>
        <path class="cls-13" d="m152.48,146.72c-.3.57-.59,1.11-.92,1.67.09.48.18.94.26,1.37-.73.95-1.93,1.58-2.77,2.36-3.43-.99-6.82-.29-10.27-.72-.17-.45.03-.69.23-.86,3.91-3.11,5.9-9.14,10.68-10.77-.03,1.71-1.62,2.44-2.15,3.9.26.51.97.75.79,1.58.32,2.06,3.09.28,4.17,1.48Z"/>
        <path class="cls-13" d="m257.72,128.66c.36.7.65,1.26.97,1.89-.47.53-.92,1.03-1.46,1.65-.07,1.67.28,4.27-1.54,5.06-1.79.71-3.6,1.39-5.39,2.09-.93.47-1.62-.27-2.46-.71.61-1.39,1.6-2.43,2.22-3.78-.27-.39-.53-.76-.85-1.22.07-4.08,1.09-1.3,3.03-2.54.35-.26.4-.63.42-1.07.28-2.44,3.42-1.15,5.05-1.36Z"/>
        <path class="cls-13" d="m118.78,73.58c-.28-.89-.18-1.52.49-1.98.82-.46.97-2.03-.2-1.94-.94.07-1.86.05-2.73-.39-1.56-1.36,1.84-1.6,2.59-1.11,1.46.65,2.91,1.65,4.42.54.6.31,1.09.56,1.54.79.1.44-.32.71-.48,1.1,4.35,3.86,11.31-2.03,15.96,1.37-1.86,2.01-4.39,2.4-6.85,1.62-4.83.55-9.86.22-14.76,0Z"/>
        <path class="cls-13" d="m64.19,232.84c-1.66-3.43-3.74-1.24-6.07-.07-.63.22-1.17.94-1.83.42.8-2.55,3.35-2.76,5.46-3.14,4.94-.91,9.13,2.22,13.13,4.93,1.09,1.15,2.72.78,3.62,2.18.89.62,2.37.6,2.68,2.12-2.56.97-5.32.01-7.97.88-.14-.66.4-.93.62-1.36.73-2.1-1.6-.13-3.24-4.03-2.27-.11-4.11-1.81-6.38-1.94Z"/>
        <path class="cls-13" d="m582.48,259.05c-.57.56-.98.95-1.41,1.37.57,1.01,1.63,1.88,1.21,3.15-.08.34-.53.5-.79.29-.79-.78-1.07-2.02-1.64-3,.37-.21.64-.37,1-.58-.55-.94-1.15-1.84-.56-3.06-2.4-.06-2.62-2.96-3.21-5.01.36-.13.64-.24,1.02-.38.7-2.61-.97-5.1.48-7.58,1.2.4,2.32.78,3.58,1.2,3.01,9.97-2.34,2.65.32,13.59Z"/>
        <path class="cls-13" d="m312.28,66.74c-.87-2.06-1.63-2.53-3.81-2.35-1.22,1.79-2.98,2.81-4.18,4.69-1.13-.74-2.25-1.31-3.52-1.35-.1-.44-.14-.57-.2-1-.34-.18-.71-.38-1.11-.6,1.04-.96,2.57-.55,3.74-1.58-2.4-1.14-4.19,1.52-6.46-.02-1.08-.35-.83-1.47-1.62-2.32,1.35-.59,2.53-.31,3.72.34.67-.21,1.34-.43,2.09-.66.56.35,1.16.73,1.73,1.09.87-1.19.51-2.08,2.14-1.39,1.65.41,3.01,1.76,4.73,1.84,1.71-.07,2.94,1.38,4.52,1.9.65.3,1.32.55,1.72,1.22-.65,1.24-2.33.13-3.5.21Z"/>
        <path class="cls-13" d="m589.51,279.03c-1.14.7-2.33.31-3.51.31-.53-1.21,2.19-2.3,2.94-3.13.47.55.87,1.01,1.25,1.45,1.58-.36,1.78-2.59,3.49-2.69.21-.56.39-1.04.59-1.57.95.19,1.71,1.2,1.6,2.18.05,2.09,1.74,3.71.62,6.02-.52-.29-.98-.55-1.43-.8-1.98,1.06.28,2.46-.6,4.29-6.42-.73-1.93-4.04-4.96-6.08Z"/>
        <path class="cls-13" d="m603.3,168.35c-1.44.33-.99-1.45-.84-2.37.48-.2.88-.37,1.28-.55.29-1.69-.44-3.42-1.26-4.86-.17-.42-.77-.91-.49-1.38.34-.34.8.2,1.12.38,2.43,1.72,5.41,4.01,8.42,3.39,3.6,4.96-.07,1.48-1.41,5.94-.59,0-1.17-.26-1.66-.61-1.57-1.17-3.78-1.09-5.18.08l.03-.03Z"/>
        <path class="cls-13" d="m78.69,74.22c.44-.73,1.66-.4,1.81-1.54-.74-.47-1.38.26-2.07.12-.68-.13-1.37-.21-2.16-.33.31-1.55,5.04-3.13,6.43-3.06,3.9.75,2.73,2.6,7.28,2.11.15-.26.28-.4.31-.56.37-1.66,1.68-1.84,2.89-2.16.88.01.42,1.16.37,1.78.83.43,1.74.05,2.55.38-.15,1.44-3.56,2.19-4.82,2.05-3.19-.28-6.32.25-9.4,1.11-1.44.41-1.91.42-3.18.09Zm3.65-1.45c-.02-.13-.07-.09-.16-.06.02.13.07.09.16.06Z"/>
        <path class="cls-13" d="m80.93,245.55c.2-2.83,2.92.65,4.64-1.26-.33-1.19-.64-2.31-.99-3.54,1.67-.83,3.63-.19,5.43-.39,2.17.24,3.37,2.84,5.55,3.2.76,1.6-1.06,1.29-1.96,1.31-1.23-.19-2.34.63-3.52.24-.9-.3-1.41,1-1.9,1.55-2.23-1.64-4.51-.95-7.24-1.11Z"/>
        <path class="cls-13" d="m108.24,97.46c1.05.08,1.67-.37,1.92,1.28,1.54.13,2.8,1,4.02,2.14v1.4c.4.23.77.44,1.2.68-1.33,1.45-3.15,0-4.43-.95-1.81.96-3.61,1.91-5.48,2.9-.57-.9-1.12-1.51-2.07-1.81,2.12-1.48,3.62-3.45,4.86-5.68,0,0-.03.03-.03.03Z"/>
        <path class="cls-13" d="m102.72,77.79c.41.52.75.94,1.1,1.38-1.7,2.48-4.56,2.19-7.06,2.83-.9-1-1.8-2.01-2.71-3.03.66-1.28,1.42-.57,2.26-.18,1.17.46,2.22-.45,2.16-1.78,1.53-1.7,3.9-.57,5.74-1.53,2.78-.25-.39,2.17-1.49,2.3Z"/>
        <path class="cls-13" d="m616.92,310.65h-4.17c-1.92-3.24-2.18-1.29-3.36-3.05,1.04-1.22,2.67-1.64,4.02-2.54,1.69.95,4.14,1.07,4.48,3.5-.27.71-.47,1.45-.98,2.08Z"/>
        <path class="cls-13" d="m592.31,194.96c1.11,1.44,2.33.99,3.37,2.88.66,1.38.14,3.17.26,4.7-.1,1.38-1.55.41-2.37.31-1.5-2.42,1.38-3.95-2.87-4.95-.24-1.9,1.69-2,1.63-2.94,0,0-.02,0-.02,0Z"/>
        <path class="cls-13" d="m105.49,69.43c1.1,1.29,1.65,1.64,2.54-.03,1.13-.01,2.21-.13,3.38.09-.03.26.03.57-.08.68-1.88,1.79-4.03,3.19-6.62,2.68-.15-.42-.28-.79-.39-1.11-1.07-.59-2.3.23-3.13-.86-.85-.91.45-1.99,1.16-1.33.38.41.7.89,1.06,1.37.79-.56,1.41-1.01,2.09-1.49Z"/>
        <path class="cls-13" d="m552.26,240.26c-.52,2.26-.64,4.22-2.93,5.14-.66-.32-1.26-.6-1.97-.94-.18-.65-.38-1.36-.57-2.08,1.48-1.95,2.93-3.57,5.48-2.12Z"/>
        <path class="cls-13" d="m581.07,302.37c.27-1.31,1.73-1.7,2.52-2.65,3.13,1.32,7.81,2.99,9.89-.89,1.28,1.02-1.28,3.62-2.34,3.75-1.6.55-3.09-.97-4.64-.3-1.88.5-3.51-.45-5.42.09Z"/>
        <path class="cls-13" d="m311,62.47c.19-.48.3-.74.41-1.01-.82-.43-1.95.64-2.9.3-1.87-1.85,2.92-1.41,3.64-.67,2.06-.56,5.31-.71,7.49-.35.03,3.1-6.52,1.71-8.64,1.72Z"/>
        <path class="cls-13" d="m655.25,322.19c.33-.41.78-.39,1.22-.37,1.4.08,2.64-.62,4.05-.04,1.31-1.16,2.76-2.15,2.91-4.21.69-.02,1.11.31,1.49.69-.92,3.22-3.28,4.64-5.91,5.8-2.59-.54-3.08-.78-3.76-1.87Z"/>
        <path class="cls-13" d="m73.31,70.83c-7.35-.84-2.13-1.44,1.23-2.23,2.73-.69,5.72-2.13,8.47-1.11-.81,1.15-3.4,2.11-4.68,1.63-.96-.66-4.32.93-5.07,1.74l.05-.03Z"/>
        <path class="cls-13" d="m588.89,269.97c-1.65.54-.73,2.84-1.11,4.31-.92-.26-1.28-1-1.81-1.44.91-1.83,1.01-2.31.92-4.01-.71.32-1.39.63-2.16.98-.47-1.03-.32-1.99-.13-3.02.86-.1,1.82.21,2.37.84.15.5.19.99.75,1.28.47.14.68,1.06,1.17,1.07Z"/>
        <path class="cls-13" d="m114.9,64.54c-.47.9-.99,1.54-1.97,1.76-1-.79-2.11-1.54-3.47-1.5-.45-.59-.86-1.12-1.31-1.71,2.15-1.1,4.5.19,6.75,1.44Z"/>
        <path class="cls-13" d="m608.69,315.66c-.35-.05-.75.04-.94-.14-1.55-1.45-3.39-.85-5.24-1.04-.05-.4-.09-.72-.12-.99,1.81-.93,5.99-.59,6.3,2.17Z"/>
        <path class="cls-13" d="m591.72,269.05c-.43-.24-.67-.38-.97-.8.38-.57.75-1.14,1.15-1.74-.43-.63-.84-1.24-1.23-1.82.35-.65.85-.64,1.33-.5,1.3.3,1.21,1.97,1.3,3.05-.54.62-1.02,1.17-1.58,1.81Z"/>
        <path class="cls-13" d="m600.58,156.35c-.78-.43-3.65-4.96-2.91-5.76,1.2,1.1,2.39,2.19,3.65,3.34-.67.75-.88,1.28-.73,2.42Z"/>
        <path class="cls-13" d="m134.03,91.1c-.38,1.79-3.14,2.86-4.32,1.46.33-1.73,3.01-2.27,4.32-1.46Z"/>
        <path class="cls-13" d="m111.37,72.85c1.32-1.39,2.66-1.64,4.29-.8.28,2.08-3.56,2.3-4.29.8Z"/>
        <path class="cls-13" d="m602.58,299.21c.35.09.64.16.95.23-.16,1.08-1.31,1.66-.89,2.82-.85.58-1.07.92-1.42,2.08-.96-2.27.24-3.47,1.37-5.14Z"/>
        <path class="cls-13" d="m298.17,126.11c-.32,1.34-.57,2.42-.83,3.47-.45.4-.89.39-1.44.2.28-.33.48-.57.72-.85-1.79-1.97-.67-2.77,1.55-2.83Z"/>
        <path class="cls-13" d="m151.1,151.64c.93.13,1.36.53,1.69,1.28-.82,1.83-1.82,1.86-2.89.15.45-.54.84-1.01,1.2-1.44Z"/>
        <path class="cls-13" d="m545.13,313.67c-.97-1.1-1.59-2.44-2.72-3.34.85-2.98,3.43,1.89,2.72,3.34Z"/>
        <path class="cls-13" d="m117.98,64.55c1.12-.76,3.09-.72,3.68.78-1.03.59-3.77,1.04-3.68-.78Z"/>
        <path class="cls-13" d="m90.1,66.72c.58-1.59,2.88-.95,4.14-.87.34,1.57-3.48,1.65-4.14.87Z"/>
        <path class="cls-13" d="m587.73,318.12c.42.41.79.81.5,1.51-.16.79.23,1.74-.68,2.13-1.92-.87-.42-2.86.18-3.64Z"/>
        <path class="cls-13" d="m589.14,263.21c-1.45-.94-2.37-1.89-3.09-3.18,1.75-1.24,2.41,1.52,3.09,3.18Z"/>
        <path class="cls-13" d="m91.6,76.23c-.44,1.19-2.65,2.61-3.04.78.09-1.46,1.89-.54,3.04-.78Z"/>
        <path class="cls-13" d="m134.08,146.76c-1.74.48-2.93.2-3.7-1.45,1.43-1.11,2.26.65,3.7,1.45Z"/>
        <path class="cls-13" d="m599.17,314.89c-.23,1.21-1.84,1.15-2.25.06-.44-1.58,2.13-1.39,2.25-.06Z"/>
        <path class="cls-13" d="m107.23,106.79c1.18-1.08,1.86-1.26,3.18-.82-.84.71-2.84,2.56-3.18.82Z"/>
        <path class="cls-13" d="m603.27,168.38c.69.42,1.37.84,2.18,1.34-.35.39-.62.69-.95,1.05-.88-.59-1.44-1.4-1.23-2.39Z"/>
        <path class="cls-13" d="m601.3,297.74c.4,1.13.24,1.9-.59,2.46-.89-.52-.01-1.78.59-2.46Z"/>
        <path class="cls-13" d="m566.3,330.52c.73-.78,1.56-.53,1.54.4-.37.81-1.39.38-1.54-.4Z"/>
        <path class="cls-13" d="m129.19,155.54c-.24.58-.4,1.08-1.01.75-.36-.2-.87-.21-1.05-.87.78,0,1.28-.05,2.06.12Z"/>
        <path class="cls-13" d="m292.63,127.53c.6-.57,1.69-.16,1.76.64-.58.94-1.48.13-1.74-.68,0,0-.02.04-.02.04Z"/>
        <path class="cls-13" d="m310.99,122.28c-.63-.79-.36-1.62.4-1.53.65.44.23,1.35-.4,1.53Z"/>
        <path class="cls-13" d="m114.78,107.56c.03.72-1.25,1.91-1.54.94.05-.67.93-1.51,1.54-.94Z"/>
        <path class="cls-13" d="m118.62,66.72c1.12-.37,1.92-.31,2.71-.14.19.92-1.88.37-2.71.14Z"/>
        <path class="cls-13" d="m584,259.52c.51-1.48,1.54-1.53,1.72-.38-.14.89-1.05.37-1.72.38Z"/>
        <path class="cls-13" d="m94.23,134.65c2.23-.55,1.89,1.89-.04.36.01-.12.03-.24.04-.36Z"/>
        <path class="cls-13" d="m595.55,115.99c.42-.19.76-.7,1.35-.38.27.96-1.19,1.36-1.31.33,0,0-.04.05-.04.05Z"/>
        <path class="cls-13" d="m666.5,318.48c-.78-.44-.6-1.66.03-1.05.03.33,0,.66-.03,1.05Z"/>
        <path class="cls-13" d="m305.18,89.82c-.53-.01-1.08.58-1.59-.07.56-.73,1.05.14,1.59.07Z"/>
        <path class="cls-13" d="m654.71,103.81h-1q.41-.23,1,0Z"/>
        <path class="cls-13" d="m588.87,269.97c.04.38.09.76.15,1.27-.55-.48-.28-.88-.14-1.27,0,0-.01,0-.01,0Z"/>
        <path class="cls-13" d="m572.34,129.74c-.21-.27-.6-.39-.3-.75.26.26.6.29.3.75Z"/>
        <path class="cls-13" d="m73.26,70.86c1.06-.05,1.22,1.11.05-.03,0,0-.05.03-.05.03Z"/>
        <path class="cls-13" d="m127.45,66.88s-.07-.06-.1-.09l.18-.11c.05.11.03.16-.07.2Z"/>
        <path class="cls-13" d="m146.54,153.57c-.05-.06-.09-.12-.14-.19.14-.02.28-.12.36.05-.07.05-.15.09-.22.14Z"/>
        <path class="cls-13" d="m319.43,118.41c.1.08.21.17.31.25-.19.17-.34.17-.52-.02.06-.07.12-.14.22-.24Z"/>
        <path class="cls-13" d="m623.07,142.45c.17.2.18.35,0,.54-.16-.2-.16-.35,0-.54Z"/>
        <path class="cls-13" d="m104.94,125.29c-.01.15-.08.12-.18.08.01-.04.02-.09.03-.13.05.02.1.03.15.05Z"/>
        <path class="cls-13" d="m133.64,88.89s.08,0,.12,0c-.02.08-.05.16-.07.25-.11-.07-.12-.14-.05-.26Z"/>
        <polygon class="cls-13" points="230.81 213.48 230.92 213.45 230.9 213.54 230.81 213.48"/>
        <path class="cls-13" d="m71.52,90.48c-.14.15-.22.2-.35,0,.09-.17.22-.04.35,0Z"/>
      </g>
      <g>
        <path class="cls-5" d="m336.83,160.78c-.82,7.07-5.39,13-28.87,10.35-5.51-.63-11.02-1.73-16.27-3.05-17.2-4.32-31.78-11.02-35.22-11.12-4.49-.14-15.26-.41-15.26-.41,0,0,1.71,2,4.09,4.95,5.13,6.3,13.37,16.97,14.72,21.88.44,1.58,1.81,5.97,3.7,11.9,6.76,21.18,20.11,61.93,20.54,64.11.56,2.77-6.68,11.98-15.52,2.98-3.33-3.37-6.85-8.09-9.97-12.65-5.13-7.56-9.1-14.72-9.1-14.72,0,0-.37,2.83-.72,6.61-.39,4.22-.79,9.6-.65,13.55.29,7.49,3.47,17.91-2.04,19.62-4.39,1.35-13.57-4.69-17.58-12.53-1.02-2.01-1.71-4.13-1.89-6.28,0,0-12.05-2.65-14.02-12.12-1.99-9.47-4.08-32.63-4.77-34.73-.61-1.9-6.16-10.2-7.19-11.74l-.16-.24s-24,.86-40.45-18.25c0,0-11.55-9.6-21.66-12.27-9.1-2.39-68.27-9.9-85.73-30.45-3.74-4.39-9.41-6.61-15.14-5.96-4.04.45-8.77.94-13.46,1.29-3.3.26-6.6.44-9.6.52-11.8.3-67.86,11.49-85.27,15.04V28.46c16.47,3.56,48.66,10.58,77.75,17.07,21.75,4.86,41.75,9.4,52.18,12.01,30.23,7.55,20.58,1.5,67.84,19.88,47.26,18.39,111.83,40.72,126.13,44.12,3.13.75,6.13,1.88,9.14,3.26,10.76,4.94,21.56,13.11,38.26,18.54,21.38,6.94,37.05,10.35,36.23,17.44Z"/>
        <path class="cls-3" d="m302.8,170.41s4.46-2.16,12.02-1.9c7.56.26,11.17,2.64,11.17,2.64,0,0-7.6,1.97-9.41,5.55-1.81,3.57-1.33,9.7-.2,11.69,0,0-2.92,1.49-5.45,0,0,0,3.11-7.8,1.4-11.17-1.71-3.37-9.53-6.8-9.53-6.8Z"/>
        <g>
          <path class="cls-3" d="m324.63,204.55c0,6.06-4.91,10.98-10.97,10.98s-10.62-4.57-10.96-10.33c-.01-.21-.02-.43-.02-.65,0-.09,0-.19,0-.28.21-9.51,10.82-18.22,10.97-18.34h0s0,0,0,0c.1.08,5.22,4.28,8.42,10.01,1.43,2.55,2.48,5.4,2.54,8.33,0,.09,0,.19,0,.28Z"/>
          <path class="cls-1" d="m324.63,204.55c0,6.06-4.91,10.98-10.97,10.98s-10.62-4.57-10.96-10.33c.46.96,1.12,1.82,1.92,2.52,1.89,1.65,4.51,2.21,6.96,1.92,2.45-.29,4.74-1.41,6.55-3.07,1.78-1.63,3.08-3.76,3.67-6.11.37-1.48.46-3.02.28-4.53,1.43,2.55,2.48,5.4,2.54,8.33,0,.09,0,.19,0,.28Z"/>
          <path class="cls-6" d="m313.01,195.86c-.76,2.3-2.78,4.05-4.51,3.91-1.73-.14-2.51-2.12-1.75-4.42.76-2.3,2.78-4.05,4.51-3.91,1.73.14,2.51,2.12,1.75,4.42Z"/>
        </g>
        <path class="cls-4" d="m255.74,241.1c.94,2.9,1.9,5.79,3.02,8.62-5.13-7.56-9.1-14.72-9.1-14.72,0,0-.37,2.83-.72,6.61-.49-.76-1.28-1.26-2.03-1.78-1.6-1.12-3.09-2.41-4.41-3.85-1.14-1.24-2.19-2.61-3.63-3.47-1.44-.86-3.44-1.07-4.72.01-.79.68-1.16,1.73-1.47,2.73-2.42,7.78-3.44,15.99-3.03,24.13.05,1.07-.08,2.46-.99,2.87-1.02-2.01-1.71-4.13-1.89-6.28,0,0-12.05-2.65-14.02-12.12-1.99-9.47-4.08-32.63-4.77-34.73-.61-1.9-6.16-10.2-7.19-11.74.45-.34,1.01-.58,1.51-.79,6.07-2.46,11.07-7.41,13.6-13.45.35-.84.65-1.75.46-2.64-.23-.98-1.03-1.71-1.78-2.38-13.83-12.04-28.48-23.15-43.79-33.22-8.27-5.43-16.77-10.58-24.33-16.96-7.21-6.08-13.61-13.41-17.27-22.09,23.09,14.06,50.01,20.71,76.77,24.83,3.58.56,7.24,1.09,10.53,2.62,4.26,2,7.58,5.52,11.25,8.49,3.66,2.95,8.19,5.48,12.85,4.84,4.95-.68,8.7-4.69,13.18-6.94.79-.39,1.73-.73,2.6-.73.58,0,1.13.15,1.59.52.58.48.88,1.21,1.18,1.9,2.96,6.87,8.34,12.47,14.43,16.8,5.62,4,11.86,7,18.13,9.89-17.2-4.32-31.78-11.02-35.22-11.12-4.49-.14-15.26-.41-15.26-.41,0,0,1.71,2,4.09,4.95-.68.07-1.32.22-1.89.57-.56.35-.97.87-1.35,1.4-3.3,4.58-4.81,10.42-4.15,16.02.12,1.01.31,2.01.75,2.94.88,1.84,2.61,3.07,4.27,4.26,2.83,1.99,5.7,4.09,7.48,7.04.34.57.64,1.17.83,1.78.11.38.19.76.22,1.16.05,1.01-.23,1.97-.48,2.94-3.52,13.68.39,28.07,4.76,41.49Z"/>
        <path class="cls-4" d="m24.18,131.51c-3.3.26-6.6.44-9.6.52-11.8.3-67.86,11.49-85.27,15.04V28.46c16.47,3.56,48.66,10.58,77.75,17.07.9,7.45.34,15.04.15,22.54-.44,17.15.99,35.09,8.69,50.69,2.24,4.53,5,8.85,8.28,12.76Z"/>
        <path class="cls-10" d="m283.36,255.38c.56,2.31,1.84,5.45-.15,7.43-.71.71-1.7,1.14-2.71,1.03-1.12-.11-1.93-.91-2.5-1.82-1.44-2.31-2.65-5-2.56-7.77.03-.57.1-1.14.19-1.7,0-.39,0-.79.03-1.14.18-1.82.94-3.55,2.23-4.8.04-.07.08-.15.12-.22.12-.23.33-.33.52-.33.24-.19.5-.35.78-.5.3-.16.78-.1.92.24,1.39,3.07,2.31,6.31,3.13,9.57Z"/>
        <path class="cls-10" d="m214.71,182.88c-1.18,3.11-4.03,5.56-7.25,6.34-3.92.97-8.16-.3-11.91-1.44-1.78-.54-3.44-1.29-4.81-2.38-2.41-1.55-4.01-4.16-4.41-7.03-.49-3.6,1.13-7.18,3.77-9.6,1.2-1.1,2.6-1.99,4.12-2.56,2.03-.78,3.77-.46,5.54.72,3.71,2.49,7.43,5.03,11.04,7.64,2.73,1.97,5.28,4.72,3.92,8.31Z"/>
        <path class="cls-10" d="m334.64,160.18c-1.99.5-4.15.3-6.13-.05-1.06-.19-2.12-.45-3.16-.73-.86-.23-1.85-.41-2.62-.87-.39-.23-.64-.54-.9-.91-.29-.39-.6-.69-.94-1.03-.57-.57-1.01-1.25-1.31-2-.01-.04-.01-.07-.03-.11-.03-.05-.07-.11-.08-.16-.5-1.32-1.06-4.11.54-4.9.82-.41,1.78-.03,2.58.2.91.26,1.82.56,2.71.87,1.93.69,3.82,1.51,5.64,2.43,1.63.83,3.41,1.74,4.41,3.35.84,1.33,1.18,3.43-.72,3.92Z"/>
        <path class="cls-10" d="m249,263.87c.2,2.35.76,4.96.3,7.3-.16.83-.73,1.69-1.69,1.54-.91-.14-1.25-1.18-1.56-1.92-.5-1.14-.94-2.31-1.31-3.51-.98-1.74-1.5-3.7-1.7-5.7-.22-2.16-.24-4.5.27-6.64.37-1.51,1.37-3.7,3.1-4.01.92-.16,1.43.49,1.54,1.33.14,1.21.22,2.43.33,3.64.23,2.65.48,5.3.72,7.96Z"/>
        <path class="cls-2" d="m23.9,121.27c10.49,2.56,21.39,6.03,29.54,13.6,2.41,2.59,5.05,4.78,7.96,6.76,11.8,8.04,25.41,12.68,38.97,16.99-14.31-2.04-28.51-6.43-40.64-14.57-6.11-4.01-9.9-10.05-16.52-13.55-6.08-3.59-12.65-6.51-19.31-9.22h0Z"/>
        <path class="cls-2" d="m125.93,101.14c6.76,17.36,22.96,27.83,38.03,37.44,15.48,9.74,29.62,21.55,43.75,33.06,5.09,4.54,12.11,7.39,7.53,15.39-3.43,5.27-8.97,8.77-14.86,10.49,2.84-1.11,5.47-2.65,7.82-4.52,3.25-2.74,6.75-6.25,6.81-10.65-.06-3.03-2.94-4.4-5.09-6.15-6.04-4.56-12.13-9.27-18.1-13.88-4.8-3.73-9.59-7.46-14.47-11.03-18.74-14.26-44.31-25.6-51.41-50.14h0Z"/>
        <path class="cls-2" d="m214.26,180.84c-.39,5.04-4.91,9.1-9.76,10.16-7.44,1.51-16.06-2.15-19.84-8.87-3.64-8,4.17-15.33,11.68-16.14-5.76,2.27-12.4,8.37-9.18,14.9,5.79,9.16,22.53,11.85,27.11-.06h0Z"/>
        <path class="cls-2" d="m256.97,156.07c-17.76,6.44-36.31-2.4-54.35-1.91-5.97.03-12.84.26-17.91-3.44,8.67,3.71,18.05.05,27.11,1.09,15.18,1.12,29.84,6.82,45.15,4.26h0Z"/>
        <path class="cls-2" d="m257.23,155.19c-2.66-3.3-2.5-8.53.38-11.65,1.11,3.93.97,7.8-.38,11.65h0Z"/>
        <path class="cls-2" d="m291.65,166.02c-2.32-2.51-.95-7.13,2.37-7.95.14,3.06-.59,5.47-2.37,7.95h0Z"/>
        <path class="cls-2" d="m320.42,150.11c-2.28,3.51,1.48,6.13,4.59,7.27,3.48,1.5,7.01,2.17,10.86,2.65-1.81.94-3.88,1.33-5.94,1.32-4.21-.18-8.7-1.45-11.11-5.37-1.13-1.93-.66-5.16,1.6-5.87h0Z"/>
        <path class="cls-2" d="m205.32,165.81c1.7-5.65,6.29-10.4,11.89-12.26-3,4.99-7,9.1-11.89,12.26h0Z"/>
        <path class="cls-2" d="m216.1,180.24c4,6.96,11.41,10,17.61,14.7,3.17,2.33,6.15,5.39,7.91,9.16,1.53,3.18,2.75,7.82,3.87,11.15l3.39,11.12c2,7.48,5.28,14.29,9.25,20.92,1.92,3.35,3.97,6.63,6.09,9.89-2.63-2.87-5.02-5.95-7.3-9.11-4.62-6.27-8.46-13.38-10.7-20.88,0,0-3.53-11.08-3.53-11.08-1.18-3.68-2.14-7.52-3.58-10.86-1.41-3.36-3.94-6.08-6.82-8.54-5.73-4.84-13.4-9.02-16.18-16.48h0Z"/>
        <path class="cls-2" d="m278.66,245.55c-2.36,6.37-1.62,12.89,2.06,18.6-7.31-2.77-8.57-14.29-2.06-18.6h0Z"/>
        <path class="cls-2" d="m246.71,272.48c-5.82-5.19-6.39-15.48-1.15-21.26-1.16,7.27-.81,14.17,1.15,21.26h0Z"/>
        <path class="cls-2" d="m212.77,190.6c1.51,4.07,4.95,6.74,7.23,10.37,2.49,3.69,2.55,8.63,2.72,12.75.53,14.02,2.22,27.86,4.07,41.78-3.77-10.68-5.73-21.94-6.53-33.22-.52-5.46.05-11.35-.68-16.66-.83-5.37-6.09-9.46-6.81-15.01h0Z"/>
        <path class="cls-2" d="m209.03,208.06c.82-2.76,3.57-4.38,6.38-3.71-.81,2.77-3.58,4.36-6.38,3.71h0Z"/>
        <path class="cls-2" d="m223.41,203.94c1.97-2.59,5.44-3.55,8.45-2.3-1.96,2.6-5.44,3.53-8.45,2.3h0Z"/>
        <path class="cls-2" d="m239.21,199.24c1.32-3.5,4.57-5.97,8.3-6.28-1.31,3.51-4.57,5.96-8.3,6.28h0Z"/>
      </g>
      <g>
        <path class="cls-3" d="m356.66,226.33c-2.7,2.94-5.4,5.9-8.1,8.87l-.39.43c-26.66,29.29-54.24,59.58-90.57,74.02-14.3,5.68-29.72,8.56-45.85,8.56-26.28,0-52.08-7.85-72.66-22.09-33.79-23.39-55.14-65.06-54.38-106.16.48-26.02,9.06-51.53,17.36-76.2,3.09-9.19,6.28-18.68,9.04-28.13l.31-1.06c13.5-47.02.88-98.43-32.93-134.18l-.9-.95-4.94,4.67.9.95c32.16,34.01,44.17,82.92,31.34,127.64l-.3,1.03c-2.72,9.32-5.89,18.75-8.96,27.87-8.46,25.16-17.21,51.17-17.71,78.24-.81,43.97,21.15,86.84,57.31,111.87,21.88,15.15,48.91,23.49,76.13,23.49,16.94,0,33.35-3.1,48.75-9.23,37.8-15.02,65.91-45.9,93.09-75.76,2.83-3.11,5.65-6.2,8.47-9.27,9.96-10.84,20.7-21.85,32.27-31.86-1.48-1.72-2.94-3.46-4.37-5.21-11.82,10.22-22.76,21.44-32.9,32.47Z"/>
        <path class="cls-11" d="m361.17,230.48c-2.82,3.07-5.64,6.17-8.47,9.27-27.13,29.81-55.19,60.63-92.84,75.58-15.33,6.09-31.65,9.18-48.5,9.18-27.08,0-53.98-8.3-75.74-23.37-35.98-24.91-57.82-67.55-57.02-111.3.5-26.96,9.23-52.93,17.67-78.04,3.07-9.12,6.24-18.56,8.97-27.9l.3-1.03c12.9-44.95.83-94.11-31.5-128.29l-.43-.45,3.95-3.74.43.45C111.63-13.58,124.19,37.59,110.76,84.37l-.31,1.06c-2.75,9.44-5.94,18.93-9.03,28.11-8.31,24.72-16.91,50.28-17.39,76.4-.76,41.32,20.7,83.21,54.67,106.73,20.69,14.32,46.63,22.21,73.05,22.21,16.21,0,31.72-2.9,46.1-8.61,36.48-14.49,64.11-44.84,90.83-74.19l.41-.45c2.7-2.96,5.39-5.92,8.08-8.85,10.12-11.01,21.04-22.21,32.83-32.4-.29-.35-.57-.71-.85-1.06-11.85,10.24-22.81,21.48-32.97,32.54-2.83,3.08-5.66,6.18-8.49,9.3-26.61,29.24-54.13,59.47-90.32,73.84-14.39,5.72-29.97,8.51-45.59,8.51-25.63,0-51.39-7.51-72.27-21.97-33.61-23.27-54.84-64.71-54.09-105.59.48-25.92,9.04-51.38,17.32-76,3.09-9.2,6.29-18.71,9.05-28.16l.31-1.06c13.56-47.25.88-98.91-33.09-134.84l-1.36-1.44-5.93,5.61,1.36,1.44c32,33.84,43.95,82.49,31.18,126.98l-.3,1.03c-2.71,9.29-5.88,18.72-8.95,27.84-8.48,25.21-17.24,51.27-17.75,78.45-.82,44.2,21.26,87.28,57.6,112.45,22.49,15.57,49.48,23.61,76.52,23.61,16.66,0,33.34-3.05,49.01-9.27,37.94-15.07,66.11-46.01,93.34-75.93,2.83-3.1,5.65-6.2,8.47-9.27,9.94-10.82,20.66-21.81,32.21-31.8-.3-.34-.59-.69-.88-1.04-11.59,10.03-22.35,21.06-32.33,31.92Z"/>
      </g>
      <g>
        <path class="cls-5" d="m705.32,508.3h-139.47s-28.95-55.47-48.08-78.16c-19.15-22.67-34.37-19.79-48.85-24.04-14.48-4.26-52.65-13.08-57.65-18.28-5-5.2-12.47-16.36-12.47-16.36,0,0-27.39-18.92-33.43-25.4s-13.64-13.86-11.32-19.16c0,0-4.61-2.95-9.72-6.24-5.11-3.29-10.73-6.92-12.76-8.31-3.77-2.61-32.14-38.47-41.18-47.18-1.12-1.09-1.37-2.79-.6-4.15,1.77-3.01,6.27-6.95,17.27-2.5,8.91,3.59,15.35,9.4,20.22,14.74,4.04,4.43,7,8.54,9.41,10.83,4.46,4.23,10.92,8.79,12.89,10.15.38.26.6.41.6.41,0,0,4.04-15.15,6.13-20.1,2.07-4.98,13.4-34.92,17.18-37.3,2.2-1.4,6.68,1.09,9.45,6.12.73,1.35,1.36,2.88,1.78,4.57.49,1.97.71,4.15.53,6.49-.05.87-.18,1.77-.35,2.69,0,0,.11.07.3.22t.03.01c1.14.88,4.88,4.39,6.28,13.42,1.01,6.45-1.47,23.45-3.6,35.92-1.4,8.2-2.65,14.46-2.65,14.46l3.32,5.25s1.25-7.97,2.88-17.65c2.49-14.67,5.85-33.29,7.04-34.07,1.96-1.28,8.96-5.79,17.83,17.69,0,0,19.91,1.78,29.02-1.06,0,0-19.61-8.54-32.53-18.39-9.38-7.15-19.84-16.92-22.93-24.89-.1-.26-.19-.5-.27-.76-.91-2.72-.88-5.21.39-7.29,5.1-8.24,13.8-8.66,32.71,3.93,18.9,12.61,43.17,24.71,65.8,37.45,22.63,12.76,37.41,22.97,47.89,46.65,10.46,23.68,23.39,35.65,23.91,35.94s144.99,144.36,144.99,144.36Z"/>
        <path class="cls-4" d="m548.5,367.08c-2.45,3.64-4.61,7.45-6.83,11.22-4.04,6.85-8.38,13.74-14.51,18.93-2.75,2.33-5.77,4.28-9.11,5.64-3.1,1.25-6.87,2.38-9.96.52-.8-.48-.83-1.47-.27-2.14,6.64-7.94,13.6-15.71,19.69-24.07.52-.69,1.01-1.41,1.5-2.15,1.44-2.41,2.94-4.8,4.57-7.1,1.81-2.68,3.78-5.24,6.19-7.28.76-.71,1.56-1.39,2.39-2.03,2.31-1.73,6.27-3.33,8.35-.34,2.03,2.88-.39,6.38-2.01,8.79Z"/>
        <path class="cls-4" d="m485.46,349.94c-3.36,2.5-8.09,3.36-12.17,3.52-4.5.2-9.02-.53-13.4-1.5-1.26-.27-2.91-.41-4.08-.97-.01-.01-.41-.07-.57-.18.05.42.38,1.33.42,1.44.61,2.08,1.37,4.12,2.11,6.16,1.47,4.08,2.96,8.43,2.73,12.84-.19,3.9-3.69,4.71-6.77,3.07-3.4-1.78-5.97-4.98-8.84-7.45-.8-.71-1.65-1.37-2.56-1.94-.64-.42-2.26-1.62-3.06-1.4-1.03.29-1.07,2.08-1.28,2.94-.58,2.46-2.57,5.07-5.36,3.37-1.58-.95-2.26-2.8-2.95-4.39-.88-2.07-1.84-4.11-2.87-6.11-2.12-4.18-4.57-8.16-7.24-12.02-2.54-3.67-4.54-7.29-5-11.82-.46-4.56.49-9.17,1.62-13.55,2.09-8.11,5.56-17.53.88-25.4-.16-.27-.19-.53-.18-.78-.24-.6-.44-1.21-.35-1.81.23-1.96,2.37-2.3,3.96-2.11,5.15.61,10.24.82,15.4.12,10.35-1.4,20.28-5.71,28.27-12.43.73-.63,2.01-.46,2.27.6.79,3.25-1.46,5.81-3.89,7.66-2.99,2.27-6.2,4.32-9.49,6.12-6.12,3.36-12.73,5.73-19.68,6.45,1.69,9.17,9.9,15.41,17.87,19.2,8.87,4.22,18.63,6.58,26.83,12.14,4.81,3.28,14.97,12.54,7.37,18.21Z"/>
        <path class="cls-4" d="m391.47,308.72c-1.63,9.68-2.88,17.65-2.88,17.65l-3.32-5.25s1.25-6.26,2.65-14.46c1.16.73,2.34,1.41,3.55,2.05Z"/>
        <path class="cls-4" d="m385.27,254.4c-.05.87-.18,1.77-.35,2.69,0,0,.11.07.3.22-1.18-.38-2.23-1.05-3.52-1.13-1.37-.08-2.76.3-3.78,1.25-2.14,1.97-2.54,5.41-3.16,8.11-1.48,6.6-2.84,13.22-4.45,19.79-3.05,12.36-7.1,24.66-14.14,35.37-.37.56-1.03.68-1.59.53-.26.12-.57.16-.94.03-.88-.31-1.67-.72-2.39-1.22-3.1-2.16-4.83-5.89-6.73-9.15-2.76-4.75-6.2-9.6-11.75-11.19-1.81-.52-3.98-.94-5.1-2.64-1.36-2.09-.33-5.03-.01-7.28.42-3.07.71-6.17.69-9.29,0-2.28.07-5.11-1.05-7.24,4.04,4.43,7,8.54,9.41,10.83,4.46,4.23,10.92,8.79,12.89,10.15-.11.49-.22.99-.3,1.48-.5,2.77-.75,5.6-.58,8.43.3,5.34,2.41,9.79,5.56,13.95,2.08-5.4,3.94-10.88,5.55-16.43,3.17-10.92,4.81-22.2,7.89-33.14,1.33-4.76,2.94-9.48,6.58-13,3.28-3.16,8.54-6.05,8.34-11.25-.01-.41.11-.71.33-.92.73,1.35,1.36,2.88,1.78,4.57.49,1.97.71,4.15.53,6.49Z"/>
        <path class="cls-4" d="m372.37,335.69c-.9-1.62-2.47-2.74-4.04-3.65-.37-.22-.75-.42-1.14-.63-.5-.47-1.02-.93-1.57-1.34-.7-.52-1.47-.99-2.28-1.36-.94-1.11-1.45-2.57-2.67-3.41-1.73-1.2-3.81-.13-4.62,1.63-.91,1.97-.58,4.26.16,6.23.41,1.1.9,2.23,1.76,3.07.78.75,1.78,1.26,2.71,1.78.16.09.32.17.48.26,1.14.85,2.39,1.54,3.74,2.01,1.75.62,4.08,1.12,5.87.45.93-.35,1.73-1.04,2.06-2,.36-1.03.04-2.11-.47-3.02Z"/>
        <path class="cls-4" d="m402.7,345.32c-.97-1.08-2.41-1.64-3.8-1.93-1.39-.29-2.81-.43-4.1-1.03-1.29-.6-2.39-1.46-3.32-2.54-.43-.5-1.22-.48-1.74-.12-.13.02-.25.04-.38.08-1.5.5-1.57,2.14-1.42,3.46.27,2.41,1.34,4.64,3,6.41,1.71,1.82,4.04,3.09,6.53,3.38,2.65.31,5.43-.98,6.22-3.68.42-1.45,0-2.94-.99-4.04Z"/>
        <path class="cls-10" d="m406.27,282.99c-.18,1.33-.49,2.64-.72,3.97-.18.99-.34,2-.67,2.98-.61,1.86-1.8,3.4-3.62,4.19-1.03.45-2.14.58-3.21.49-1.52.05-3.1-.34-3.58-1.89-.3-1.02,0-2.12.22-3.13.27-1.31.56-2.6.83-3.9.53-2.53.98-5.09,1.62-7.59.48-1.88,1.56-3.47,3.63-3.67,1.89-.18,3.63.86,4.6,2.46,1.12,1.82,1.18,4.04.9,6.09Z"/>
        <path class="cls-10" d="m304.44,273.39c.14.64.12,1.29-.03,1.9.05,1.21-.33,2.37-1.77,2.45-.94.05-1.47-.69-2.04-1.32l-2.26-2.48c-1.51-1.66-3.02-3.3-4.53-4.96-.75-.83-1.51-1.65-2.26-2.48-.63-.69-1.54-1.41-1.89-2.3-.29-.73-.03-1.5.71-1.81.78-.31,1.77-.12,2.57.01,3.79.6,6.65,3.16,8.83,6.19,1.01,1.4,2.33,3.05,2.67,4.79Z"/>
        <path class="cls-10" d="m384.49,261.98c.61,3.78-.03,8.26-2.26,11.45-.97,1.39-2.24,2.61-3.78,3.39-.27.15-.56.27-.84.38-1.22.79-3.07.61-4.34-.01-.94-.48-.83-1.36-.73-2.27.14-1.24.3-2.49.5-3.73.37-2.26.84-4.5,1.41-6.7.3-1.16.63-2.31.98-3.45.26-.82.5-1.73,1.09-2.39,1.17-1.32,3.26-.8,4.73-.34,1.82.56,2.92,1.81,3.24,3.69Z"/>
        <path class="cls-10" d="m374.09,254.66c-1.89,2.16-4.86,2.64-7.34,1.6-.46-.04-.92-.14-1.36-.29-.84-.33-1.28-1.07-1.01-1.96.34-1.06.98-2.11,1.47-3.11.95-2,1.94-3.97,2.95-5.94,1.03-2.03,2-4.13,3.2-6.07.91-1.51,2.49-1.29,3.74-.3,1.28,1.02,2.04,2.58,2.05,4.22.01,1.14-.33,2.28-.61,3.39-.29,1.07-.57,2.15-.88,3.22-.52,1.81-.94,3.77-2.2,5.24Z"/>
        <path class="cls-2" d="m416.35,292.34c2.66,5.95,4.19,12.56,3.66,19.33-1.3,8.32-3.98,16.45-3.3,24.94.81,4.06,3.35,7.79,5.2,11.58,3.03,5.72,6.21,11.48,8.42,17.64-5.06-8.46-11.02-16.14-15.43-25.02-.29-.6-.76-1.84-.95-2.48-1.63-9.15,1.59-18.19,3.64-26.96.94-6.17.2-12.7-1.23-19.03h0Z"/>
        <path class="cls-2" d="m392.38,305.78c-.88,8.77-2.4,17.41-4.03,26.05-.56,2.88-1.2,5.69-1.38,8.45-.61,5.49,1.69,10.66,4.64,15.61,2.9,4.93,6.42,10.04,7.52,15.91-3.54-8.21-10.73-14.05-13.98-22.51-2.39-5.76-1.13-12.33.3-18.07,2.03-8.56,4.17-17.06,6.94-25.43h0Z"/>
        <path class="cls-2" d="m422.83,334.27c10.12,8.89,15.22,23.6,12.73,36.84-2.01-13.07-6.22-25.33-12.73-36.84h0Z"/>
        <path class="cls-2" d="m459.14,375.77c-4.63-23.43-21.35-40.97-35.79-59,17.63,14.86,35.56,34.63,35.79,59h0Z"/>
        <path class="cls-2" d="m427.81,308.7c7.59,6.57,16.73,10.04,25.9,13.77,9.22,3.76,18.33,7.67,27.06,12.52-9.66-2.51-18.99-5.98-28.26-9.62-9.08-3.78-18.94-8.3-24.7-16.68h0Z"/>
        <path class="cls-2" d="m384.19,256.27c-1.4-1.32-3.48-1.1-4.95-.3-1.55.79-2.46,2.31-2.99,3.96-.99,3.4-1.13,7.26-1.87,10.79-1.28,7.33-3.13,14.56-5.39,21.65-3.22,10.63-8.37,20.69-13.11,30.61-1.34,3.31-2.04,7.01-1.04,10.61-1.69-3.38-1.44-7.48-.43-11.1,3.72-10.51,8.41-20.42,11.59-31.09,2.29-6.97,4.24-14.05,5.99-21.18,1.65-5.07,1.24-12.53,6.9-15.04,1.77-.69,4.13-.51,5.31,1.09h0Z"/>
        <path class="cls-2" d="m355.89,320.85c-5.25-4.74-10.56-11.68-9.36-19.4,1.22-7.25,4.34-13.78,6.91-20.57,1.8-4.42,3.71-8.8,5.91-13.07-.97,4.71-2.23,9.32-3.6,13.89-1.35,4.57-2.88,9.1-4.43,13.59-1.59,4.42-2.81,8.78-1.68,13.1,1.06,4.35,3.76,8.37,6.24,12.46h0Z"/>
        <path class="cls-2" d="m548.4,355.01c-4.14,4.22-8.58,7.6-13.76,10.43,1.92-5.77,7.7-10.13,13.76-10.43h0Z"/>
        <path class="cls-2" d="m526.31,376.87c-1.26,5.29-4.02,10.08-7.37,14.31-3.42,4.17-7.52,7.88-12.43,10.22,1.65-2.17,3.36-4.17,5.04-6.17,4.76-5.62,10.1-12.67,14.76-18.36h0Z"/>
        <path class="cls-2" d="m435.85,283.54c3.04-4.49,7.04-7.99,11.92-10.37-1.64,5.29-6.46,9.47-11.92,10.37h0Z"/>
        <path class="cls-2" d="m418.44,271.06c.73-3.53,3.66-6.2,7.25-6.57-.72,3.54-3.67,6.19-7.25,6.57h0Z"/>
        <path class="cls-2" d="m418.21,292.19c17.31,1.04,34.36-3.98,48.37-14.19-11.12,13.82-31.55,19.8-48.37,14.19h0Z"/>
        <path class="cls-2" d="m378.4,258.2c7.97-1.62,10.19,4.01,8.2,10.82-1.06,5.2-6.76,10.92-12.34,8.6,5.22-.57,8.09-4.76,9.31-9.43,1.73-6.32,1.19-8.29-5.17-9.99h0Z"/>
        <path class="cls-2" d="m290.11,263.51c4.28-8.26,22.06,9.84,13.14,14.06.63-.89.79-1.84.7-2.73-.35-2.81-2.68-4.63-4.55-6.75-2.53-2.16-5.59-6.8-9.29-4.57h0Z"/>
        <path class="cls-2" d="m335.57,284.88c2.19,2.8,1.39,7.22-1.66,9.06-1.03-3.23-.43-6.4,1.66-9.06h0Z"/>
        <path class="cls-2" d="m365.15,255.38c4.81,3.11,7.86-2.44,9.79-6.27,1.62-2.98,3.2-6.16,1.18-9.05-.64-.85-1.65-1.53-2.94-1.63,1.18-.62,2.77-.33,3.97.48,5.82,4.33.23,14.59-4.53,17.93-2.3,1.55-6.38,1.32-7.47-1.45h0Z"/>
        <path class="cls-2" d="m398.67,275.37c2.22-1.69,6.15-1.05,7.93,1.82,3.19,6.14.96,16.93-6.92,18.04-1.46.16-2.99-.15-4.07-1,2.71.41,4.98-.87,6.51-2.53,2.29-2.59,2.73-6.59,2.81-10.04.31-3.66-1.98-6.77-6.25-6.28h0Z"/>
      </g>
      <g>
        <path class="cls-3" d="m556.99,183.79c-19.65-18.91-48-30.2-75.86-30.2-4.72,0-9.43.32-14.01.95-29.41,4.06-55.08,19.88-77.56,39.32,1.43,1.75,2.89,3.49,4.37,5.21,21.67-18.75,46.25-33.96,74.12-37.8,4.3-.59,8.72-.89,13.14-.89,26.1,0,52.68,10.58,71.09,28.31,21.88,21.06,33.61,52.91,30.61,83.12-1.92,19.42-9.5,38.18-16.82,56.32-2.02,5.01-4.11,10.19-6.07,15.33-1.4,3.68-2.95,7.33-4.6,11.23-8.54,20.11-18.2,42.88-.49,64.66l5.22-4.36c-15.06-18.58-7-37.56,1.52-57.64,1.6-3.76,3.25-7.65,4.7-11.47,1.91-5.04,3.98-10.16,6.01-15.2,7.5-18.58,15.26-37.8,17.29-58.19,3.2-32.24-9.32-66.22-32.66-88.69Z"/>
        <path class="cls-11" d="m557.47,183.3c-20.09-19.34-48.36-30.39-76.33-30.39-4.72,0-9.44.32-14.1.96-29.56,4.08-55.33,19.96-77.89,39.46.29.35.57.71.85,1.06,22.4-19.38,47.96-35.14,77.23-39.18,4.55-.63,9.23-.95,13.92-.95,27.68,0,55.86,11.22,75.39,30.01,23.2,22.33,35.63,56.1,32.46,88.13-2.01,20.29-9.75,39.46-17.24,58l-.03.08c-2,4.96-4.07,10.09-5.99,15.13-1.45,3.81-3.09,7.69-4.69,11.44-8.53,20.09-16.59,39.09-1.84,57.81l-4.18,3.49c-16.87-21.3-7.38-43.66,1.03-63.45,1.64-3.87,3.19-7.53,4.6-11.22,1.95-5.13,4.04-10.31,6.06-15.31,7.34-18.18,14.94-36.99,16.87-56.5,3.02-30.42-8.79-62.48-30.81-83.68-18.81-18.11-44.9-28.49-71.56-28.5-4.45,0-8.9.3-13.23.9-28.02,3.86-52.71,19.14-74.46,37.95.3.34.58.69.88,1.04,21.59-18.68,46.06-33.82,73.77-37.64,4.32-.6,8.68-.89,13.05-.89,25.88,0,52.03,10.22,70.62,28.12,21.73,20.91,33.38,52.55,30.4,82.56-1.92,19.32-9.47,38.03-16.78,56.13-2.03,5.02-4.12,10.2-6.07,15.34-1.4,3.68-2.95,7.33-4.59,11.2-8.68,20.45-18.52,43.63.05,65.89l6.27-5.23c-15.38-18.43-7.33-37.39,1.2-57.47,1.6-3.77,3.26-7.67,4.71-11.49,1.92-5.06,4-10.21,6.01-15.18,7.52-18.63,15.3-37.89,17.33-58.38,3.22-32.44-9.38-66.64-32.87-89.25Z"/>
      </g>
    </g>
    <g>
      <polygon class="cls-13" points="619.45 63.97 626.01 63.97 626.01 71.01 619.45 71.01 619.45 77.56 612.42 77.56 612.42 71.01 605.87 71.01 605.87 63.97 612.42 63.97 612.42 57.42 619.45 57.42 619.45 63.97"/>
      <polygon class="cls-13" points="585.46 36.84 585.46 45.54 577.36 45.54 577.36 53.64 568.66 53.64 568.66 45.54 560.56 45.54 560.56 36.84 568.66 36.84 568.66 28.74 577.36 28.74 577.36 36.84 585.46 36.84"/>
      <polygon class="cls-13" points="608.55 27.22 608.55 22.32 603.64 22.32 603.64 17.06 608.55 17.06 608.55 12.16 613.8 12.16 613.8 17.06 618.7 17.06 618.7 22.32 613.8 22.32 613.8 27.22 608.55 27.22"/>
    </g>
    <g>
      <polygon class="cls-13" points="184.54 451.21 195.44 451.21 195.44 462.93 184.54 462.93 184.54 473.84 172.83 473.84 172.83 462.93 161.92 462.93 161.92 451.21 172.83 451.21 172.83 440.31 184.54 440.31 184.54 451.21"/>
      <polygon class="cls-13" points="233.13 431.68 241.31 431.68 241.31 440.46 233.13 440.46 233.13 448.63 224.36 448.63 224.36 440.46 216.18 440.46 216.18 431.68 224.36 431.68 224.36 423.51 233.13 423.51 233.13 431.68"/>
      <polygon class="cls-13" points="174.39 420.38 174.39 414.79 168.79 414.79 168.79 408.78 174.39 408.78 174.39 403.19 180.39 403.19 180.39 408.78 185.98 408.78 185.98 414.79 180.39 414.79 180.39 420.38 174.39 420.38"/>
    </g>
    <g>
      <g>
        <path class="cls-11" d="m567.9,465.7l14.9,18.75c3.35,4.22,9.51,4.92,13.72,1.58l18.76-14.91c4.21-3.35,4.91-9.5,1.56-13.72l-14.9-18.75c-3.35-4.22-9.51-4.92-13.72-1.58l-18.76,14.91c-4.21,3.35-4.91,9.5-1.56,13.72Zm3.44-2.73c-1.84-2.32-1.47-5.7.85-7.54l18.76-14.91c2.32-1.84,5.7-1.44,7.54.87l14.9,18.75c1.85,2.33,1.46,5.7-.85,7.54l-18.76,14.91c-2.32,1.84-5.69,1.46-7.54-.87l-14.9-18.75Z"/>
        <path class="cls-13" d="m571.34,462.97l14.9,18.75c1.85,2.33,5.23,2.71,7.54.87l18.76-14.91c2.32-1.84,2.7-5.22.85-7.54l-14.9-18.75c-1.84-2.32-5.23-2.71-7.54-.87l-18.76,14.91c-2.32,1.84-2.69,5.23-.85,7.54Z"/>
      </g>
      <g>
        <path class="cls-11" d="m567.95,439.4l1.22,1.54,9.34,11.74c1.83,2.32,5.19,2.69,7.5.87,2.3-1.84,2.69-5.19.86-7.51l-9.34-11.74-1.21-1.53-8.36,6.63Z"/>
        <polygon class="cls-8" points="549.16 415.76 567.95 439.4 576.32 432.77 557.5 409.12 549.16 415.76"/>
        <polygon class="cls-11" points="566.61 440.47 567.83 442.01 569.17 440.95 577.53 434.3 578.87 433.24 577.65 431.71 576.32 432.77 567.95 439.4 566.61 440.47"/>
        <rect class="cls-11" x="588.1" y="448.49" width="3.2" height="19.38" transform="translate(1336.43 449.86) rotate(141.51)"/>
      </g>
      <polygon class="cls-12" points="556.54 427.61 564.05 437.05 575.03 428.33 567.49 418.89 556.54 427.61"/>
    </g>
  </g>
</svg>