<svg width="156" height="142" viewBox="0 0 156 142" fill="white" xmlns="http://www.w3.org/2000/svg">
<path d="M32.556 138L10.6935 115.698C6.409 111.329 4.00129 105.402 4 99.2222V50.6096C4 47.5193 5.20343 44.5555 7.34554 42.3703C9.48766 40.1852 12.393 38.9575 15.4224 38.9575C18.4518 38.9575 21.3571 40.1852 23.4993 42.3703C25.6414 44.5555 26.8448 47.5193 26.8448 50.6096V85.566M123.455 138L145.318 115.698C149.598 111.327 152.002 105.401 152 99.2222V50.6096C152 47.5193 150.797 44.5555 148.654 42.3703C146.512 40.1852 143.607 38.9575 140.578 38.9575C137.548 38.9575 134.643 40.1852 132.501 42.3703C130.359 44.5555 129.155 47.5193 129.155 50.6096V85.566" stroke="#EA525A" stroke-width="1" stroke-linecap="round" stroke-linejoin="round"/>
<path d="M37.2957 106.865L29.2201 98.6268C27.1394 96.4292 25.9881 93.4858 26.0141 90.4307C26.0401 87.3755 27.2414 84.4531 29.3592 82.2927C31.477 80.1323 34.3419 78.9068 37.3368 78.8803C40.3317 78.8537 43.2171 80.0282 45.3713 82.1507L60.1405 97.2169C64.4208 101.588 66.8243 107.514 66.8226 113.693V137.999M118.715 106.865L126.79 98.6268C128.871 96.4292 130.022 93.4858 129.996 90.4307C129.97 87.3755 128.769 84.4531 126.651 82.2927C124.533 80.1323 121.668 78.9068 118.673 78.8803C115.679 78.8537 112.793 80.0282 110.639 82.1507L95.8698 97.2169C91.5894 101.588 89.1859 107.514 89.1877 113.693V137.999M101.09 49.6297C101.09 36.4977 78.245 4 78.245 4C78.245 4 55.4002 36.5094 55.4002 49.6297C55.4002 56.0616 57.8103 62.2489 62.0937 66.8049C66.3771 71.3492 72.1911 73.9127 78.245 73.9127C84.2989 73.9127 90.1243 71.3492 94.4077 66.8049C98.7191 62.1706 101.113 56.0187 101.09 49.6297Z" stroke="#EA525A" stroke-width="8" stroke-linecap="round" stroke-linejoin="round"/>
</svg>
