<svg width="242" height="334" viewBox="0 0 242 334" fill="none" xmlns="http://www.w3.org/2000/svg">
<path fill-rule="evenodd" clip-rule="evenodd" d="M242 251.043V52.8911C242 44.0905 238.358 35.6503 231.874 29.4273C225.391 23.2043 216.597 19.7082 207.429 19.7082H155.571L145.788 10.052C142.566 6.87113 138.712 4.34267 134.455 2.61612C130.197 0.889576 125.622 0 121 0C116.378 0 111.803 0.889576 107.545 2.61612C103.288 4.34267 99.4341 6.87113 96.2123 10.052L86.4286 19.7082H34.5714C25.4025 19.7082 16.6091 23.2043 10.1257 29.4273C3.64234 35.6503 0 44.0905 0 52.8911V251.043C0 259.843 3.64234 268.284 10.1257 274.507C16.6091 280.73 25.4025 284.226 34.5714 284.226H69.1429V300.817H112.357V334H129.643V300.817H172.857V284.226H207.429C216.597 284.226 225.391 280.73 231.874 274.507C238.358 268.284 242 259.843 242 251.043ZM143.178 31.2724C144.788 32.8631 146.715 34.1276 148.844 34.991C150.973 35.8545 153.26 36.2995 155.571 36.2997H207.429C212.013 36.2997 216.41 38.0477 219.651 41.1592C222.893 44.2707 224.714 48.4908 224.714 52.8911V197.444C222.172 195.546 219.501 193.811 216.72 192.251C200.946 183.441 178.129 178.862 151.181 194.126C128.986 206.694 108.114 210.087 85.4087 210.551C75.2879 210.759 64.9424 210.385 53.8537 209.979L49.2729 209.813C38.6171 209.371 27.9508 209.205 17.2857 209.315V52.8994C17.2857 48.4991 19.1069 44.279 22.3486 41.1675C25.5903 38.056 29.987 36.308 34.5714 36.308H86.4286C88.7397 36.3078 91.0272 35.8628 93.156 34.9993C95.2848 34.1358 97.2116 32.8714 98.8224 31.2807L108.606 21.6245C110.217 20.0341 112.144 18.7699 114.273 17.9066C116.401 17.0433 118.689 16.5985 121 16.5985C123.311 16.5985 125.599 17.0433 127.727 17.9066C129.856 18.7699 131.783 20.0341 133.394 21.6245L143.178 31.2724Z" fill="#EA525A"/>
<path d="M82.48 135C79.6 135 77.2533 134.413 75.44 133.24C73.68 132.013 72.2667 130.467 71.2 128.6C70.1333 126.68 69.1733 124.733 68.32 122.76L61.84 107.24L63.36 108.12C61.92 108.28 60.2933 108.733 58.48 109.48C56.72 110.173 55.1733 111.107 53.84 112.28C52.56 113.4 51.92 114.68 51.92 116.12C51.92 117.507 52.3467 118.973 53.2 120.52C54.0533 122.067 55.12 123.64 56.4 125.24C57.68 126.84 58.96 128.413 60.24 129.96C61.52 131.453 62.5867 132.867 63.44 134.2C64.2933 135.48 64.72 136.6 64.72 137.56C64.72 140.653 63.68 143.613 61.6 146.44C59.52 149.32 56.5067 151.64 52.56 153.4C48.6667 155.213 43.9733 156.12 38.48 156.12C35.0133 156.12 32.08 155.853 29.68 155.32C27.28 154.787 25.4667 154.253 24.24 153.72C23.0133 153.187 22.4 152.92 22.4 152.92L24.08 146.76H24.72C25.7333 147.08 26.9067 147.427 28.24 147.8C29.6267 148.227 31.3067 148.573 33.28 148.84C35.2533 149.16 37.6267 149.32 40.4 149.32C45.04 149.32 49.0667 148.36 52.48 146.44C55.8933 144.52 58.5333 142.013 60.4 138.92L60.24 141.8C59.28 140.36 57.9467 138.653 56.24 136.68C54.5867 134.707 52.88 132.627 51.12 130.44C49.36 128.253 47.8667 126.04 46.64 123.8C45.4667 121.56 44.88 119.427 44.88 117.4C44.88 114.627 45.5733 112.253 46.96 110.28C48.4 108.253 50.1867 106.573 52.32 105.24C54.5067 103.907 56.8 102.84 59.2 102.04C61.6533 101.187 63.92 100.547 66 100.12H66.64L73.28 116.84C74.2933 119.347 75.2267 121.453 76.08 123.16C76.9333 124.813 77.9733 126.067 79.2 126.92C80.4267 127.773 82.0533 128.2 84.08 128.2V133.4L82.48 135ZM35.04 129.88C33.8133 129.88 32.7733 129.48 31.92 128.68C31.12 127.88 30.72 126.84 30.72 125.56C30.72 124.28 31.12 123.24 31.92 122.44C32.7733 121.64 33.8133 121.24 35.04 121.24C36.2667 121.24 37.28 121.64 38.08 122.44C38.9333 123.24 39.36 124.28 39.36 125.56C39.36 126.84 38.9333 127.88 38.08 128.68C37.28 129.48 36.2667 129.88 35.04 129.88ZM35.04 141.08C33.8133 141.08 32.7733 140.68 31.92 139.88C31.12 139.08 30.72 138.04 30.72 136.76C30.72 135.48 31.12 134.44 31.92 133.64C32.7733 132.84 33.8133 132.44 35.04 132.44C36.2667 132.44 37.28 132.84 38.08 133.64C38.9333 134.44 39.36 135.48 39.36 136.76C39.36 138.04 38.9333 139.08 38.08 139.88C37.28 140.68 36.2667 141.08 35.04 141.08ZM83.93 173.2V168.72L104.57 162H105.21V166.48L84.57 173.2H83.93ZM84.0781 128.2H97.9181L95.1981 129.88C94.9848 129.133 94.7715 128.093 94.5581 126.76C94.3448 125.373 94.2381 123.853 94.2381 122.2V95.64L100.958 94.68H101.598V131.24L98.5581 128.2H113.438V133.4L111.838 135H82.4781V129.8L84.0781 128.2ZM94.9581 146.84C94.9581 145.56 95.3581 144.52 96.1581 143.72C97.0115 142.92 98.0515 142.52 99.2781 142.52C100.505 142.52 101.518 142.92 102.318 143.72C103.171 144.52 103.598 145.56 103.598 146.84C103.598 148.12 103.171 149.16 102.318 149.96C101.518 150.76 100.505 151.16 99.2781 151.16C98.0515 151.16 97.0115 150.76 96.1581 149.96C95.3581 149.16 94.9581 148.12 94.9581 146.84ZM84.4781 148.28C84.4781 147 84.8781 145.96 85.6781 145.16C86.5315 144.36 87.5715 143.96 88.7981 143.96C90.0248 143.96 91.0381 144.36 91.8381 145.16C92.6915 145.96 93.1181 147 93.1181 148.28C93.1181 149.56 92.6915 150.6 91.8381 151.4C91.0381 152.2 90.0248 152.6 88.7981 152.6C87.5715 152.6 86.5315 152.2 85.6781 151.4C84.8781 150.6 84.4781 149.56 84.4781 148.28ZM150.106 101.16C147.812 101.16 146.026 100.467 144.746 99.08C143.519 97.64 142.906 96.0133 142.906 94.2C142.906 92.76 143.252 91.4267 143.946 90.2C144.639 88.92 145.599 87.9067 146.826 87.16C148.052 86.4133 149.412 86.04 150.906 86.04C152.079 86.04 153.172 86.3333 154.186 86.92C155.199 87.5067 156.026 88.36 156.666 89.48C157.359 90.6 157.706 91.9333 157.706 93.48C157.706 94.8133 157.359 96.0667 156.666 97.24C156.026 98.4133 155.146 99.3733 154.026 100.12C152.906 100.813 151.599 101.16 150.106 101.16ZM150.266 97.72C151.066 97.72 151.812 97.4533 152.506 96.92C153.252 96.3333 153.759 95.6933 154.026 95C153.972 93.9333 153.706 92.9733 153.226 92.12C152.799 91.2667 152.239 90.52 151.546 89.88C150.906 89.24 150.212 88.76 149.466 88.44L151.546 87.64L153.226 88.92C151.839 88.8667 150.692 89.1333 149.786 89.72C148.879 90.2533 148.212 90.9467 147.786 91.8C147.359 92.6 147.146 93.4 147.146 94.2C147.146 95.2133 147.439 96.0667 148.026 96.76C148.666 97.4 149.412 97.72 150.266 97.72ZM111.853 135V129.8L113.453 128.2H153.053L151.053 129.16C148.493 127.773 145.586 125.56 142.333 122.52C139.133 119.427 135.64 115.587 131.853 111C128.12 106.413 124.12 101.187 119.853 95.32L124.973 90.52H125.613C130.68 97.72 135.213 103.747 139.213 108.6C143.266 113.453 146.813 117.32 149.853 120.2C152.946 123.08 155.56 125.133 157.693 126.36C159.826 127.587 161.506 128.2 162.733 128.2H164.333V133.4L162.733 135H111.853ZM174.283 68.84C174.016 68.52 173.723 68.0667 173.403 67.48C173.136 66.84 173.003 66.04 173.003 65.08C173.003 63.48 173.403 62.04 174.203 60.76C175.003 59.4267 176.043 58.36 177.323 57.56C178.603 56.76 179.91 56.36 181.243 56.36C183.003 56.36 184.443 56.8933 185.563 57.96C186.683 59.0267 187.243 60.3067 187.243 61.8C187.243 63.8267 186.656 65.5333 185.483 66.92C184.31 68.3067 182.87 69.3733 181.163 70.12C179.456 70.8133 177.75 71.16 176.043 71.16C173.91 71.16 172.07 70.7867 170.523 70.04C168.976 69.24 167.27 67.88 165.403 65.96L167.803 63.48H168.363C169.59 64.6533 170.87 65.6133 172.203 66.36C173.536 67.1067 174.95 67.48 176.443 67.48C177.99 67.48 179.27 67.2133 180.283 66.68C181.296 66.1467 182.07 65.48 182.603 64.68C183.136 63.88 183.403 63.1067 183.403 62.36C183.403 61.2933 182.976 60.52 182.123 60.04C181.323 59.56 180.363 59.32 179.243 59.32L181.163 59C179.67 59.5333 178.603 60.3333 177.963 61.4C177.323 62.4667 177.003 63.6133 177.003 64.84C177.003 65.8533 177.163 66.6533 177.483 67.24C177.803 67.7733 178.23 68.2533 178.763 68.68L174.283 68.84ZM162.75 128.2H176.59L173.87 129.88C173.657 129.133 173.443 128.093 173.23 126.76C173.017 125.373 172.91 123.853 172.91 122.2V95.64L179.63 94.68H180.27V131.24L177.23 128.2H192.11V133.4L190.51 135H161.15V129.8L162.75 128.2ZM176.43 87C175.203 87 174.163 86.6 173.31 85.8C172.51 85 172.11 83.96 172.11 82.68C172.11 81.4 172.51 80.36 173.31 79.56C174.163 78.76 175.203 78.36 176.43 78.36C177.657 78.36 178.67 78.76 179.47 79.56C180.323 80.36 180.75 81.4 180.75 82.68C180.75 83.96 180.323 85 179.47 85.8C178.67 86.6 177.657 87 176.43 87ZM193.618 154.2V149.72L214.258 143H214.898V147.48L194.258 154.2H193.618ZM190.525 135V129.8L192.125 128.2H206.045L203.325 129.88C203.112 129.133 202.898 128.093 202.685 126.76C202.472 125.373 202.365 123.853 202.365 122.2V75.16L209.085 74.2H209.725V121.24C209.725 122.307 209.725 123.533 209.725 124.92C209.778 126.307 209.832 127.667 209.885 129C209.992 130.333 210.152 131.48 210.365 132.44V133.08C208.765 133.72 206.738 134.2 204.285 134.52C201.885 134.84 199.005 135 195.645 135H190.525Z" fill="#EA525A"/>
</svg>
